<svg xmlns="http://www.w3.org/2000/svg" fill-rule="evenodd" aria-label="Florale Schmiede Logo" viewBox="0 0 3496 3297"><path fill="#787e7e" d="M1183 89.24c-25.74 12.24-35.73 17.18-37 18.27-1.69 1.45-6.04 3.94-17 9.73a232 232 0 0 0-15.5 9.21 948 948 0 0 1-12.62 8.15c-4.79 3-20.76 13.9-29.18 19.89a142 142 0 0 0-9.39 7.46c-2.52 2.23-4.96 4.05-5.42 4.05s-3.04 1.91-5.76 4.25a657 657 0 0 1-11.7 9.75c-3.72 3.03-8.2 6.85-9.95 8.5-1.76 1.65-7.38 6.82-12.5 11.5-21.68 19.77-49.2 49.47-65.25 70.41a91 91 0 0 1-3.73 4.56c-3.14 3.47-8 9.94-8 10.67 0 .41-1.08 1.9-2.4 3.3-2.82 3.02-5.72 7.14-17.23 24.56-4.73 7.15-9.44 14.22-10.48 15.71s-1.89 2.96-1.89 3.26-1.49 2.68-3.3 5.29a89 89 0 0 0-5.32 8.74c-1.1 2.2-3.06 5.72-4.33 7.81-4.3 7.05-20.68 39.3-25.25 49.69a244 244 0 0 1-3.9 8.35c-1.04 2.1-1.9 4.21-1.9 4.67s-2.64 7.06-5.87 14.67c-3.23 7.6-6.2 15.39-6.62 17.29a27 27 0 0 1-1.56 4.99c-1.1 2.13-4.68 12.01-5.45 15.03-.34 1.38-1 3.4-1.47 4.5-2.36 5.63-11.61 39.83-15.14 56a696 696 0 0 0-13.9 99.41c-1 15.66-1.26 61-.41 71.59a722 722 0 0 1 .92 15.5c.29 5.77.93 12.75 1.44 15.5s.9 5.67.9 6.5c-.02 1.51 1.63 14.88 3.09 25 1.38 9.59 4.19 24.18 5.15 26.7.5 1.34.93 3.86.93 5.62.01 1.75.91 6.03 2 9.52 1.1 3.49 1.99 7.64 1.99 9.24s.88 5.22 1.96 8.06a57 57 0 0 1 2.64 9.76c.37 2.53 2.02 8.43 3.67 13.1a221 221 0 0 1 4.9 16c1.04 4.11 4.38 13.79 7.42 21.5 3.04 7.7 6.02 15.35 6.63 17 3.23 8.74 22.75 52.46 24.34 54.5.64.83 3.19 5.8 5.66 11.08 3.98 8.49 9.89 19.04 15 26.8.95 1.44 3.14 5.32 4.88 8.62s4.92 8.48 7.1 11.5c2.16 3.02 6.17 8.88 8.89 13 8.27 12.53 11.59 17.3 15.33 22 1.97 2.47 4.93 6.3 6.58 8.5 6.36 8.48 9.22 12.14 12.52 16 1.89 2.2 5.5 6.47 8.03 9.5 7.9 9.44 20.44 22.88 33.99 36.45 11.29 11.3 18.88 18.43 35.4 33.24 6.46 5.8 16.9 14.31 17.55 14.31.34 0 4.32 3.05 8.82 6.77s10.44 8.3 13.19 10.2a80 80 0 0 1 5.5 3.98c.77.86 30.22 20.5 31.44 20.96.58.22 4.54 2.59 8.8 5.25s7.98 4.84 8.27 4.84c.3 0 2.43 1.23 4.76 2.73 6.05 3.9 17.77 10.06 36.73 19.3 9.08 4.43 17.29 8.48 18.25 9.02s4.75 2.1 8.42 3.48 7.16 2.9 7.75 3.37c.6.47 2.2 1.2 3.58 1.6s9.25 3.34 17.5 6.5c26.02 9.99 37.18 13.5 68 21.42 18.92 4.87 29.65 7.2 41.5 9 5.78.9 11.85 2.03 13.5 2.53s5.65 1.19 8.9 1.51c3.23.33 6.16.76 6.5.96s4.85.67 10.05 1.04 9.72.84 10.05 1.04c2.27 1.4 43.5 3.32 85 3.95 41.48.63 62.23 3.88 83.5 13.09 1.65.71 5.03 2.1 7.5 3.07s7.8 3.7 11.83 6.08 7.68 4.31 8.1 4.31 1.58.9 2.57 2c1 1.1 2.2 2 2.7 2 5.43 0 39.71 32.6 46.79 44.5 1.3 2.2 3.73 5.58 5.38 7.5 9.18 10.67 24.2 49.86 26.64 69.5.41 3.3 1.04 7.13 1.39 8.5 2 7.85 1 37.12-1.83 53.3-2.24 12.81-4.74 21.09-11.56 38.2-10.1 25.38-27.23 48.6-51.27 69.5-3.17 2.75-6.14 5-6.61 5s-2.87 1.78-5.35 3.96c-9.48 8.35-48.3 25.7-62.54 27.94-3.44.55-6.74 1.29-7.33 1.66-.6.36-7.25 1.25-14.8 1.96-21.68 2.06-41.67.64-63.61-4.51a61 61 0 0 1-7-2.02c-1.1-.46-6.94-2.73-12.99-5.04-13.64-5.2-20.83-8.48-26-11.82-6-3.88-7.8-4.95-10.05-5.98a11 11 0 0 1-3.37-2.55c-.74-.88-1.88-1.6-2.56-1.6-.67 0-2.04-.9-3.04-2.01s-3.77-2.99-6.16-4.18c-2.38-1.2-4.33-2.55-4.33-3.02 0-1.57-36.72-37.4-49-47.8-4.12-3.5-8.62-7.4-10-8.69a218 218 0 0 0-9.5-7.85c-3.85-3.04-8.12-6.43-9.5-7.54-4.8-3.86-13.51-10.42-15.15-11.41-4.85-2.95-13.58-9.11-15.14-10.69-.98-1-2.42-1.81-3.2-1.81s-1.77-.6-2.21-1.34-3.05-2.64-5.8-4.23a374 374 0 0 1-12.04-7.4c-9.28-5.97-10.1-6.47-15.96-9.6a66 66 0 0 1-6.2-3.63c-4.65-3.74-53.19-27.58-67.05-32.93a206 206 0 0 1-12.25-5.12 116 116 0 0 0-9.5-3.75c-5.3-1.7-14.5-4.98-17-6.06-1.1-.47-4.47-1.6-7.5-2.5s-6.4-1.98-7.5-2.43c-6.04-2.44-6.24-2.5-37-10.65-17.14-4.54-54.46-12.14-61.5-12.52-.83-.04-9.15-1.1-18.5-2.35a554 554 0 0 0-28-3.04c-6.05-.41-12.58-.88-14.5-1.03-27.57-2.12-87.96.29-116 4.64-3.58.55-9.42 1.42-13 1.94-16.53 2.38-26 4.05-34.5 6.08-2.2.53-6.48 1.43-9.5 2.01-3.02.59-8.42 1.9-12 2.9a202 202 0 0 1-12 2.97c-3.02.62-10.15 2.68-15.83 4.58-5.69 1.9-11.09 3.46-12 3.46-.93 0-4.6 1.09-8.17 2.41-16.45 6.12-28.94 11-33.78 13.2-2.9 1.31-6.23 2.39-7.4 2.39-2.42 0-35.57 14.6-37.82 16.66-.83.76-10.05 5.72-20.5 11.02-20.67 10.5-22.01 11.24-29 16.1a99 99 0 0 1-9.8 5.87 83 83 0 0 0-10.15 6.37 134 134 0 0 1-10.55 7 79 79 0 0 0-9 6.17c-1.92 1.62-5.6 4.38-8.17 6.13a271 271 0 0 0-18.41 13.68c-2.34 1.92-7.04 5.75-10.45 8.5-19.63 15.84-49.72 44.35-65.97 62.5-3.57 3.99-7.85 8.72-9.5 10.5a142 142 0 0 0-5.5 6.4q-3.85 4.82-9.73 11.91c-4.82 5.8-12.9 16.24-15.27 19.72a66 66 0 0 1-4 5.34c-1.42 1.57-3.62 4.62-7 9.67-.82 1.24-3.86 5.7-6.75 9.94s-5.25 7.88-5.25 8.11c0 .24-1.57 2.67-3.5 5.41s-3.5 5.21-3.5 5.5-1.57 2.76-3.5 5.5-3.5 5.2-3.5 5.46-2.17 4.2-4.83 8.76c-7.67 13.14-12.4 21.78-15.73 28.78a1582 1582 0 0 0-13.38 28.5c-.46 1.1-2.2 4.92-3.87 8.5-4.73 10.14-18.44 47.05-22.84 61.5-1.4 4.57-4.08 14.1-8.03 28.5-7.65 27.88-17.07 81.53-18.81 107.16-1.6 23.37-1.9 32.02-1.86 53.84.01 13.47.36 29.68.77 36 1.35 21.07 1.52 23.47 1.97 28 .61 6.17 2.05 16.47 5.59 40 2.1 13.97 3.18 19.81 4.55 24.4.8 2.73 1.47 6.17 1.47 7.66 0 1.48.7 4.66 1.57 7.06.87 2.41 2.01 7.04 2.55 10.3a80 80 0 0 0 2.97 11.5c1.1 3.07 2.9 9.4 4 14.08a138 138 0 0 0 5 16.05c1.65 4.15 3.08 8.54 3.17 9.75.1 1.21.47 2.2.84 2.2s.98 1.6 1.34 3.55c1.08 5.74 38 88.4 43.88 98.26 1.88 3.13 4.9 8.62 6.73 12.19s5.2 9.2 7.5 12.5 5.66 8.7 7.48 12 4.74 7.8 6.5 10 4.67 6.47 6.49 9.5a66 66 0 0 0 6.04 8.5 66 66 0 0 1 5.92 8.25c1.76 2.89 3.6 5.25 4.1 5.25s2.09 1.91 3.55 4.25a85 85 0 0 0 6.26 8.46c1.99 2.31 5.86 6.97 8.61 10.34s6.35 7.63 8 9.47c1.65 1.83 5.48 6.11 8.5 9.52 7.58 8.53 35.3 36.17 43.6 43.46 3.74 3.3 8.4 7.44 10.35 9.2a566 566 0 0 0 29.55 24.05c3.85 2.84 7.45 5.52 8 5.96 2.93 2.32 9.6 7.19 13.98 10.2a131 131 0 0 1 6 4.31c2.65 2.29 11.31 7.85 13.77 8.85 1.51.62 2.75 1.46 2.75 1.87 0 .4 1.15 1.26 2.57 1.9 1.41.65 5.66 3.2 9.44 5.67 3.79 2.47 7.18 4.49 7.53 4.49s1.85.84 3.3 1.86c5.75 4.01 51.5 27.59 61.16 31.5 2.48 1 5.85 2.42 7.5 3.15s8.4 3.43 15 6.01 13.35 5.27 15 5.97 7.27 2.71 12.5 4.46 10.4 3.57 11.5 4.04c1.98.84 19.77 6.2 26.5 7.99 1.92.5 5.98 1.63 9 2.5 3.02.85 7.52 1.98 10 2.5s8.33 1.85 13 2.96a925 925 0 0 0 38 7.45c.83.13 3.08.54 5 .92 4.34.84 17.66 2.47 23 2.8.83.06 4.65.5 8.5.99 21.35 2.7 59.62 3.92 92.5 2.94 9.53-.28 44.5-3.5 56-5.16 4.13-.59 9.08-1.17 11-1.28s5.75-.72 8.5-1.34a445 445 0 0 1 22.5-4.29c2.47-.4 7.65-1.48 11.5-2.42s8.8-2.13 11-2.64a410 410 0 0 0 29.5-7.95c6.88-2.09 15.17-4.56 18.43-5.48s10.21-3.45 15.45-5.59c5.25-2.14 10.05-3.89 10.69-3.89s4.25-1.4 8.04-3.12 8.15-3.33 9.68-3.57c3.47-.55 35.09-14.47 37.47-16.5.96-.81 9.84-5.56 19.74-10.54 23.73-11.95 24.87-12.57 25.76-13.95.42-.65 2-1.83 3.5-2.62 8.63-4.52 18.04-10.1 23.04-13.67a622 622 0 0 1 23.1-15.74c2.43-1.53 6.61-4.7 9.3-7.04 2.67-2.34 5.23-4.25 5.68-4.25s3.47-2.23 6.71-4.96c3.25-2.72 8.3-6.88 11.2-9.25 2.92-2.36 7.2-5.95 9.5-7.97 11.58-10.14 14.37-12.63 18.2-16.32 2.28-2.2 6.81-6.53 10.08-9.63 9.27-8.8 25.25-25.52 32.82-34.34 3.8-4.42 7.95-9.16 9.23-10.53s5.93-7 10.32-12.5c4.38-5.5 8.9-10.95 10.02-12.1s2.04-2.57 2.04-3.13.7-1.6 1.56-2.32 3.21-3.8 5.23-6.87a77 77 0 0 1 4.94-6.9c.7-.73 1.27-1.66 1.27-2.06s.79-1.64 1.75-2.74 2.2-2.7 2.75-3.58 2.46-3.69 4.25-6.25 3.25-4.84 3.25-5.07 1.74-3.02 3.86-6.2c7.7-11.5 10.14-15.4 10.14-16.1 0-.4 1.46-2.97 3.25-5.71s4.15-6.78 5.25-8.98 2.98-5.62 4.18-7.6c2.5-4.15 14.7-28.46 18.76-37.39 5.39-11.84 6.37-14.08 8.58-19.5 1.24-3.03 4.12-10 6.42-15.5s4.76-12.03 5.48-14.5 1.99-6.3 2.8-8.5c1.48-3.95 5.55-16.3 8.57-26 .86-2.75 2.3-7.93 3.21-11.5s2.26-8.53 3-11c.73-2.47 2.03-7.65 2.88-11.5.84-3.85 2.43-10.82 3.52-15.5 1.1-4.68 2.95-14.35 4.12-21.5a2348 2348 0 0 1 2.58-15.5c.24-1.37.6-4.3.8-6.5s1.3-11.2 2.44-20c3.41-26.19 3.96-46.98 3.12-118.5-.4-33.5 2.96-52.81 13.15-75.74 1.04-2.33 1.89-4.6 1.89-5.04 0-1.33 7.78-16.24 12.12-23.22 5.04-8.12 12.47-18.13 17.88-24.1 1.38-1.5 3.21-3.57 4.08-4.58 3.64-4.2 19.1-17.76 24.07-21.1a83 83 0 0 0 7.57-5.66c6.43-5.96 44.09-22.13 58.4-25.07 23.51-4.85 54.06-5.5 74.38-1.59 6.6 1.27 12.9 2.65 14 3.06s4.7 1.59 8 2.6a108 108 0 0 1 7.5 2.53c1.66.75 5.8 2.44 9.25 3.78 8.09 3.14 25.8 12.86 31.98 17.56l9.31 7.07c11.29 8.58 29.16 27.24 34.97 36.5 1.55 2.47 4.05 6.08 5.57 8 2.9 3.7 9.65 16.76 14.72 28.5 14.56 33.75 17.4 75.15 7.82 114-2.1 8.48-3.58 13.68-4.57 16-.46 1.1-1.41 3.57-2.1 5.5-6.16 17.1-25.15 46.6-37.2 57.78-1.51 1.4-2.75 3.05-2.75 3.66 0 .6-2.59 3.83-5.75 7.16-14.36 15.12-27.3 29.69-28.62 32.23-.49.92-1.39 2.12-2.02 2.67-.62.55-3.9 4.6-7.3 9s-7.1 8.95-8.24 10.1-2.07 2.55-2.07 3.08-1.12 2.03-2.5 3.32c-1.37 1.3-2.5 2.76-2.5 3.27 0 .5-.91 2.11-2.03 3.57-7.53 9.84-9.97 13.16-9.97 13.58 0 .26-1.46 2.57-3.25 5.12s-3.74 5.5-4.34 6.54c-.6 1.05-1.77 2.7-2.6 3.66a16 16 0 0 0-2.16 3.26c-.37.82-1.8 3.3-3.17 5.5a97 97 0 0 0-3.51 6 69 69 0 0 1-2.91 5 161 161 0 0 0-4.38 7.5l-6.07 11c-6.64 11.97-24.61 48.98-24.61 50.68 0 .35-1.29 3.37-2.86 6.72-3.66 7.8-14.26 36.29-20.5 55.12-9.04 27.2-18.14 67.43-23.18 102.46-2.3 15.94-3.03 23.08-5.2 50.52-1.87 23.5-.68 76.12 2.3 102.5.9 7.97 1.74 16.3 1.86 18.5s.57 5.52 1 7.39c.44 1.86.92 4.78 1.07 6.5.62 7.05 7.02 38.94 11.16 55.61l2.96 12a324 324 0 0 0 5.5 18.27c2.14 6.47 3.9 12.54 3.92 13.5.01.95 2.3 7.58 5.1 14.73a1587 1587 0 0 1 7.84 20.5c1.52 4.13 3.9 9.97 5.3 13 1.39 3.03 6.23 13.82 10.77 24s8.58 18.95 9 19.5c.43.55 4.33 7.97 8.67 16.5s9.5 17.75 11.47 20.5a94 94 0 0 1 6.28 10.38 112 112 0 0 0 7.44 12c2.61 3.64 5.97 8.64 7.46 11.12s4.16 6.39 5.93 8.7 4.56 6.06 6.21 8.36 4.8 6.56 7 9.48l7.25 9.64c5.77 7.68 12.67 16.06 15.75 19.1a43 43 0 0 1 4.57 5.34c1.48 2.24 15.25 17.52 19.28 21.4l2.73 2.63c.49.47 3.74 3.78 7.23 7.35a516 516 0 0 0 27.6 26 151 151 0 0 1 8.88 8.25c1.4 1.51 3.01 2.75 3.59 2.75s1.96.91 3.08 2.02c2.8 2.79 21.53 17.92 25.97 20.98 2 1.38 4.5 3.18 5.57 4a199 199 0 0 0 5.52 4 345 345 0 0 1 6.91 5c1.84 1.38 5.5 3.85 8.14 5.5a541 541 0 0 1 15.13 9.76c3.95 2.6 7.6 4.74 8.1 4.74.49 0 1.7.9 2.7 2s2.15 2 2.57 2 5.29 2.67 10.8 5.93c14.4 8.49 59.6 30.67 72.13 35.39a615 615 0 0 1 15.24 6.06c4.8 2 9.56 3.62 10.58 3.62s2.14.3 2.51.66c2.51 2.52 49.9 16.88 70.17 21.27 5.5 1.19 11.35 2.57 13 3.07s6.15 1.4 10 2 11.28 1.97 16.5 3.03c8.6 1.75 18.64 3.13 32.5 4.47 2.75.26 8.38.95 12.5 1.52 21.34 2.97 113.42 3.31 118.07.44.38-.24 3.78-.68 7.56-.99 9.36-.76 12.56-1.11 21.87-2.38l15.05-2.04c3.87-.52 8.29-1.42 9.81-2a20 20 0 0 1 5.84-1.05c1.68 0 6.49-.86 10.68-1.9 4.2-1.06 13.02-3.15 19.62-4.66 6.6-1.5 15.38-3.77 19.5-5.03a312 312 0 0 1 14.42-3.98c3.8-.92 9.87-2.9 13.5-4.37 3.62-1.49 9.5-3.5 13.08-4.5 6.17-1.7 46.48-18.9 48.41-20.66.54-.49-.56-4.24-2.67-9.11a8354 8354 0 0 0-27.56-61.89c-1.15-2.53-3.86-8.6-6.02-13.5-13.03-29.56-25.78-58.01-29.2-65.2-2.18-4.57-3.96-8.87-3.96-9.56 0-.68-.38-1.67-.84-2.19s-1.8-3.25-2.96-6.06a437 437 0 0 0-5.07-11.5 4313 4313 0 0 1-22.59-50.39c-3.13-7.15-7.43-16.82-9.53-21.5-6.84-15.14-25.6-57.18-31.01-69.5-2.9-6.6-6.62-14.93-8.27-18.5s-6.24-13.93-10.22-23-16.6-37.43-28.01-63a51156 51156 0 0 1-27.22-61c-1.37-3.03-8.8-19.68-16.5-37s-15.3-34.28-16.88-37.68-3.73-8.35-4.78-11a249 249 0 0 0-4.96-11.32c-1.67-3.57-6.96-15.28-11.75-26s-10.93-24.45-13.65-30.5-7.78-17.53-11.24-25.5-7.73-17.65-9.5-21.5a1851 1851 0 0 1-7.7-17c-2.45-5.5-5.29-11.8-6.3-14-3.9-8.56-10.02-22.52-10.02-22.9 0-.22-1.8-4.28-4.01-9.01s-9.47-20.87-16.13-35.85l-16.34-36.74a47276 47276 0 0 1-29.97-67.5l-3.56-8a5530.97 5530.97 0 0 1-22.18-49.5c-1.1-2.47-3.71-8.32-5.82-13-2.1-4.68-6.5-14.57-9.78-22s-6.87-15.53-8-18c-3.86-8.47-19.93-44.5-25.2-56.5-2.9-6.6-6.5-14.7-8-18s-4.4-9.82-6.46-14.5a6277 6277 0 0 0-9.77-22l-7.81-17.5a12119 12119 0 0 0-21.67-48.5 2279 2279 0 0 1-8-18c-7.73-17.55-7.71-17.51-12.23-27.35-2.24-4.87-4.07-9-4.07-9.18s-1.51-3.62-3.36-7.65c-1.85-4.02-7.53-16.77-12.63-28.32a2612 2612 0 0 0-12.73-28.5 315 315 0 0 1-5.27-12c-1-2.47-3.38-7.87-5.31-12-1.94-4.12-8.12-17.85-13.74-30.5s-13.04-29.3-16.48-37-10.86-24.35-16.48-37a7061 7061 0 0 0-12.47-28c-1.25-2.75-3.86-8.6-5.8-13-4.2-9.56-7.06-16-28.23-63.5-8.95-20.08-22.86-51.35-30.92-69.5a3983 3983 0 0 0-17.02-38c-1.3-2.75-6.73-14.9-12.07-27a4399 4399 0 0 0-14-31.5c-2.38-5.22-7-15.58-10.28-23s-6.87-15.53-7.99-18a7060 7060 0 0 1-23.37-52.31c-4.32-9.8-8.71-19.7-9.75-22a21229.84 21229.84 0 0 0-26.35-59.19c-52.65-117.95-62.62-140.35-67-150.5-2.73-6.33-5.3-11.95-5.7-12.5s-2.19-4.51-3.95-8.8a390 390 0 0 0-6.6-15c-1.86-3.96-6.84-15.08-11.07-24.7s-8.71-19.75-9.96-22.5c-9.91-21.77-16.47-36.47-16.47-36.89 0-.28-2.51-6.04-5.59-12.8-3.07-6.77-7.4-16.36-9.61-21.31-2.22-4.95-5.17-11.47-6.56-14.5-1.39-3.01-5.78-12.91-9.76-22-3.98-9.07-14.67-33.15-23.75-53.5-9.1-20.35-22.2-49.83-29.14-65.5a3950 3950 0 0 0-14.04-31.5c-.78-1.65-2.63-5.7-4.1-9-13.9-31.18-19.98-44.76-21.9-49-1.26-2.75-7.35-16.48-13.54-30.5a7670 7670 0 0 0-20.57-46.11 1871 1871 0 0 1-11.87-26.73 508 508 0 0 0-4.98-11.39A4776 4776 0 0 1 1416.5 595a8440 8440 0 0 0-15-33.5c-3.47-7.7-10.68-23.9-16.01-36s-10.94-24.7-12.45-28-7.13-15.9-12.49-28a4028 4028 0 0 0-12.25-27.5c-1.4-3.02-6.8-15.18-12.04-27a2863 2863 0 0 0-12.98-29c-1.91-4.12-4.29-9.52-5.28-12s-3.38-7.87-5.3-12c-1.91-4.12-6.96-15.37-11.21-25-4.25-9.62-8.77-19.75-10.03-22.5a1958 1958 0 0 1-16.97-38 2775 2775 0 0 0-20.5-46c-1.02-2.2-5.43-12.1-9.79-22-9.88-22.44-39.05-87.93-42.76-96-1.51-3.3-4.65-10.28-6.97-15.5s-4.84-9.59-5.6-9.7-3.4.76-5.87 1.94"/><path fill="#4e9c24" d="M1686.74 268.57c-.13.12-6.77.5-14.74.86-13.55.59-45.91 3.6-59.5 5.55-3.3.47-9.15 1.3-13 1.83-3.85.54-8.27 1.47-9.82 2.08a22 22 0 0 1-6.5 1.13c-2.02 0-5.61.68-7.97 1.5a70 70 0 0 1-10.5 2.41c-3.42.5-8.18 1.62-10.59 2.5-2.4.86-5.61 1.57-7.13 1.57s-7.06 1.56-12.33 3.47c-5.26 1.9-11.69 3.75-14.28 4.1s-9.7 2.66-15.79 5.14-12.66 4.93-14.59 5.45a54 54 0 0 0-6.5 2.28c-1.65.74-5.47 2.14-8.5 3.13a93 93 0 0 0-10 3.99c-2.47 1.21-6.3 2.98-8.5 3.92-6.91 2.98-8.5 3.84-8.5 4.6 0 .72 2.35 6.07 23.74 53.92 5.77 12.93 13.99 31.38 18.25 41s11.7 26.27 16.5 37c4.82 10.73 11.12 24.9 14 31.5s9.4 21.23 14.46 32.5a5402 5402 0 0 1 12.73 28.5c1.94 4.4 5.45 12.27 7.82 17.5s8 17.83 12.52 28 11.99 26.92 16.6 37.22 12.84 28.75 18.27 41 22.8 51.3 38.6 86.78l81.99 184c11.39 25.58 21.52 48.3 22.52 50.5 3.49 7.67 31.3 70.06 35 78.5 2.05 4.67 9.7 21.78 16.98 38s14.5 32.42 16.02 36c1.53 3.58 10.53 23.83 20 45s23.51 52.67 31.21 70 15.13 33.97 16.5 37 7.8 17.42 14.29 32 17.4 39.1 24.27 54.5l51.21 115a65189 65189 0 0 0 69.83 156.5c5.78 12.92 15.69 35.2 22.01 49.5 11.02 24.91 33.7 75.82 35.65 80 2.33 4.98 7.49 16.58 10.03 22.5a4363 4363 0 0 0 16.01 36c7.29 16.22 16.72 37.38 20.98 47 4.26 9.63 17.08 38.42 28.5 64s24.26 54.38 28.52 64a13658 13658 0 0 0 18.25 41c12.08 27 34.52 77.34 78.23 175.5 16.9 37.95 37.27 83.63 45.26 101.5s17.2 38.57 20.46 46 8.8 19.8 12.28 27.5 10.02 22.32 14.52 32.5 9.01 20.3 10 22.5c5.45 12.06 32 71.75 36.48 82 2.89 6.6 9.4 21.22 14.5 32.5 5.08 11.28 15.43 34.45 23 51.5 18.55 41.8 58.6 131.67 61.73 138.5 1.38 3.03 7.8 17.43 14.28 32s24.7 55.53 40.52 91 35.17 78.9 43 96.5c24.28 54.6 38.64 86.83 40.55 91 1 2.2 5.72 12.78 10.49 23.5 4.76 10.72 16.09 36.15 25.16 56.5l45.02 101c15.7 35.2 30.76 68.95 33.5 75a905 905 0 0 1 7.46 16.98c5.86 14 8.11 17.54 10.55 16.61 6.97-2.65 24.8-11.17 28.14-13.44 2.14-1.46 4.35-2.65 4.9-2.65s2.42-1.07 4.14-2.38 8.28-4.96 14.6-8.12c6.3-3.16 13.13-7.06 15.15-8.65s7.42-4.96 12-7.47c4.58-2.52 9.67-5.82 11.32-7.35a52 52 0 0 1 8-5.59 61 61 0 0 0 8.7-6.08c2.04-1.8 5.52-4.2 7.72-5.32s4.5-2.95 5.09-4.06c.6-1.1 3.54-3.4 6.56-5.1s5.9-3.9 6.44-4.9c.52-.98 3.21-3.18 5.97-4.87 2.76-1.7 5.02-3.53 5.02-4.07 0-.53 1.54-2.01 3.42-3.3 4.02-2.73 16.76-14.13 27.65-24.74a388 388 0 0 1 9.56-9.1c1.03-.88 6.6-6.66 12.37-12.84 5.78-6.18 11.66-12.43 13.08-13.9 2.76-2.84 12.79-14.73 16.92-20.06a83 83 0 0 1 5.25-6.02c1.51-1.54 2.75-3.26 2.75-3.82s1.13-1.77 2.5-2.67 2.5-2.12 2.5-2.72c0-.96 2.42-4.37 6.3-8.87.71-.82 2.17-2.8 3.25-4.4l3.45-5.13c7.08-10.52 9.63-14.15 10.73-15.3.7-.72 1.27-1.77 1.27-2.32 0-.56 1.57-2.93 3.5-5.28s3.5-4.56 3.5-4.9 1.57-3.1 3.5-6.1c1.93-3.01 3.5-5.89 3.5-6.4 0-.5.72-1.52 1.6-2.26s2.02-2.25 2.52-3.37 1.85-3.61 3.01-5.54 3.27-5.75 4.69-8.5 2.83-5.22 3.13-5.5 1.82-2.97 3.38-6 3.66-7.07 4.67-9c3.7-7 14.49-30.2 17.1-36.75l1.9-4.75c.55-1.37 1.4-3.51 1.87-4.75s1.9-4.5 3.13-7.25a208 208 0 0 0 3.13-7.25c.48-1.24 1.3-3.26 1.81-4.5a37 37 0 0 0 1.63-5.72c.38-1.9 1.02-4.15 1.44-5 .75-1.51 2.16-4.9 3.87-9.28 1.18-3.03 6.71-21.14 8.17-26.75.64-2.47 1.53-5.4 1.97-6.5s1.99-6.95 3.44-13l3.12-13c.26-1.1 1.1-4.93 1.85-8.5.76-3.57 1.6-7.4 1.87-8.5 2.48-10.13 9.24-56.7 10.24-70.5.34-4.68.83-10.97 1.09-14 1.16-13.38 1.09-70.28-.12-84.5-.7-8.25-1.3-15.68-1.33-16.5-.11-3-3.48-28.15-5.14-38.5-.53-3.3-1.38-8.93-1.89-12.5a105 105 0 0 0-2.6-12.24c-.93-3.15-1.45-6.11-1.17-6.57s-.58-4.3-1.93-8.55c-1.35-4.24-2.45-8.94-2.45-10.43s-1.12-5.86-2.48-9.71-2.49-8.26-2.5-9.8c-.01-1.53-1.63-7.1-3.6-12.36-3.25-8.66-5.91-17.39-6.99-22.9-.43-2.23-11.32-28.93-17.06-41.85-17.82-40.1-27.9-60.92-32.97-68.09a138 138 0 0 1-7.95-13.7c-2.43-4.78-5.71-10.18-7.3-12a67 67 0 0 1-6.21-9.3 89 89 0 0 0-6.98-10.5c-2-2.47-4.85-6.62-6.32-9.2-1.47-2.6-3.47-5.3-4.45-6-.98-.72-2.84-3.1-4.14-5.3a53 53 0 0 0-5.59-7.5 62 62 0 0 1-5.86-7.75c-1.44-2.34-3.06-4.25-3.6-4.25s-2.18-1.91-3.64-4.25a61 61 0 0 0-5.97-7.75c-1.81-1.93-5-5.4-7.1-7.72a871 871 0 0 0-25.96-27.72c-6.7-6.9-12.42-12.56-12.72-12.56s-3.38-2.67-6.84-5.93a721 721 0 0 0-9.77-9.07c-1.93-1.73-5.75-5.2-8.5-7.69a84 84 0 0 0-7.5-6.17 22 22 0 0 1-4.32-3.88c-1-1.25-2.29-2.26-2.86-2.26-.85 0-8.82-6.08-14.82-11.3-1.39-1.21-5.56-4.12-17.79-12.39a62 62 0 0 1-6.3-4.75c-.86-.86-1.86-1.56-2.2-1.56-.33 0-2.7-1.46-5.26-3.25s-5.35-3.7-6.2-4.25c-9.24-5.95-11.81-7.5-12.43-7.5-.4 0-2.66-1.29-5.02-2.86a155 155 0 0 0-8.8-5.36 322 322 0 0 1-8-4.6 164 164 0 0 0-8.5-4.64c-2.75-1.4-5.68-2.97-6.5-3.5-1.57-1-36.03-17.6-39.5-19.02-1.1-.45-3.57-1.5-5.5-2.33s-6.65-2.73-10.5-4.22-8.8-3.47-11-4.43-7.6-2.95-12-4.44c-4.4-1.48-8.78-3.12-9.74-3.65a8 8 0 0 0-3.26-.95 8 8 0 0 1-3.26-.94c-.96-.52-5.56-2.06-10.24-3.41a1617 1617 0 0 0-27-7.66c-1.93-.5-5.97-1.59-9-2.4-10.7-2.88-35.8-8-44.5-9.1a67 67 0 0 1-7.5-1.44c-4.47-1.2-16.64-2.91-25-3.52-3.57-.25-9.65-.89-13.5-1.4-3.85-.53-9.63-1-12.84-1.04s-6.18-.3-6.6-.56c-.8-.48-28.06-1.28-69.56-2.03-27.45-.49-53.53-4-63-8.46-1.1-.51-4.03-1.6-6.5-2.41-4.21-1.38-13.3-5.16-19-7.9-4.57-2.2-19.46-11.01-22.19-13.14a435 435 0 0 0-7.45-5.59c-7.72-5.67-15.08-12.61-29.7-28a53 53 0 0 1-6-8.1c-1.47-2.54-3.62-5.46-4.78-6.5-4.75-4.28-23.01-45.04-24.87-55.5-.63-3.52-1.74-8.65-2.47-11.4-.72-2.75-1.32-5.9-1.34-7 0-1.1-.5-6.12-1.1-11.15-1.13-9.76-.73-29.98.8-39.85 2.84-18.19 3.38-21.09 4.07-22 .43-.55 1.08-2.74 1.47-4.87a28 28 0 0 1 1.63-5.75l1.93-3.87c.55-1.09 1-2.44 1-3s.95-3.16 2.1-5.77 2.44-5.64 2.87-6.74c2.29-5.98 11.24-22.16 15.2-27.5 1.03-1.37 2.53-3.4 3.33-4.5s4.28-5.37 7.7-9.5c5.6-6.73 8.39-9.59 20.75-21.25a48 48 0 0 1 6.5-5.1 44 44 0 0 0 6.12-4.77c5.24-4.99 37.36-21.85 41.72-21.9 1.22-.02 5.36-1.38 9.21-3.03a65 65 0 0 1 13.5-3.94 77 77 0 0 0 9.5-1.9c4.73-1.53 26.97-2.99 38.5-2.52 31.75 1.27 60.15 10.43 92.82 29.91.92.55 4.15 2.83 7.18 5.07s6.96 4.72 8.75 5.5 3.25 1.71 3.25 2.07 4.28 5.07 9.5 10.5c5.22 5.4 9.5 10.18 9.5 10.6s.52.76 1.16.76 4.2 3.15 7.9 7c3.72 3.85 6.97 7 7.23 7 .25 0 3.22 2.59 6.59 5.75s7.74 7.1 9.73 8.75c1.98 1.65 5.24 4.52 7.24 6.38s5.9 5.06 8.65 7.1c4.8 3.58 12.34 9.57 15.5 12.32.82.71 2.8 2.17 4.4 3.25 2.79 1.88 3.82 2.58 10.2 6.93 1.6 1.08 3.26 2.55 3.7 3.25s1.37 1.27 2.07 1.27 2.34 1.13 3.63 2.5c1.3 1.38 2.72 2.5 3.18 2.5s3.08 1.58 5.82 3.5 5.21 3.5 5.5 3.5 2.69 1.52 5.34 3.38c12.23 8.6 62.91 36.04 78.66 42.58a519.6 519.6 0 0 0 17 7.04c4.4 1.75 10.35 4.25 13.22 5.56a53 53 0 0 0 8 3c1.53.32 3.8 1.01 5.03 1.52 8.33 3.41 17.06 6.6 20.25 7.41 1.38.35 3.4 1 4.5 1.43 7.43 2.96 46.32 13.29 59 15.66 4.4.83 10.93 2.18 14.5 3 9.68 2.25 44.8 7.33 58.5 8.48 25.93 2.17 32.1 2.38 63.5 2.23 31.56-.15 57.58-1.9 80.5-5.4a157 157 0 0 1 11-1.32c2.2-.13 6.25-.73 9-1.34a348 348 0 0 1 22.5-4.24 60 60 0 0 0 9.88-2.4c2.4-.87 5.78-1.6 7.5-1.6s6.43-1.13 10.48-2.5 9.23-2.76 11.5-3.08c2.28-.32 8.19-2.1 13.14-3.94s11.52-3.8 14.6-4.35c3.07-.54 12.3-3.78 20.5-7.18s19.74-7.88 25.65-9.95 11.76-4.4 13-5.18c1.24-.79 4.5-2.27 7.25-3.3a92 92 0 0 0 10-4.6 1065 1065 0 0 1 23.5-11.93c10.18-5.05 21.2-11.07 24.5-13.38s9.38-5.93 13.5-8.03c4.13-2.1 8.85-5.08 10.5-6.61s6.15-4.49 10-6.57 7.58-4.6 8.3-5.57c.7-.98 4.36-3.58 8.13-5.78 3.76-2.2 7.08-4.63 7.38-5.4s3.08-2.86 6.19-4.64c3.1-1.78 5.88-3.84 6.16-4.57s2.74-2.76 5.46-4.5 5.49-3.95 6.16-4.88c.67-.94 2.57-2.54 4.22-3.56a47 47 0 0 0 6.63-5.42c2-1.96 5.97-5.6 8.83-8.07s7.21-6.3 9.67-8.5c7.96-7.13 28.76-28.06 36.41-36.64 4.1-4.6 8.59-9.54 9.96-10.98 6.47-6.77 8-8.63 8-9.69 0-.63 1.13-1.88 2.5-2.78s2.5-2.23 2.5-2.95 1.01-2.15 2.25-3.18a19 19 0 0 0 3.25-3.44c.55-.87 4.03-5.57 7.73-10.46a766 766 0 0 1 12.28-16.02c1.37-1.73 2.49-3.5 2.49-3.92s.69-1.49 1.53-2.36c2.9-3 15.83-22.96 17.06-26.33.36-.96 1.03-1.75 1.51-1.75s1.55-1.46 2.38-3.25c.84-1.79 2.41-4.6 3.5-6.25a49 49 0 0 0 2.7-4.5c.39-.83 2.19-4.04 4-7.15 9.71-16.64 23.9-45 28.92-57.85.96-2.47 2.3-5.4 2.95-6.5s2.42-5.37 3.9-9.5c1.5-4.12 3.12-8.51 3.63-9.75a801 801 0 0 0 3.83-9.5c2.09-5.19 4.3-11.35 4.59-12.75.37-1.86 3.37-9.96 4.45-12.04.44-.85 1.12-3.43 1.51-5.74.4-2.32 1.13-4.46 1.63-4.77s.91-1.64.91-2.96.42-3.43.93-4.7c1.42-3.5 8.7-30.44 9.54-35.29.19-1.1 1.94-9.87 3.88-19.5 3.65-18.07 7.38-42.62 8.21-54 .26-3.58.96-10.76 1.55-15.97 2.96-26.06 2.64-76.76-.7-108.53-.87-8.25-1.55-16.58-1.52-18.5s-.46-5.08-1.1-7a24 24 0 0 1-.92-7.24c.12-2.06-.28-4.66-.88-5.78s-1.52-5.3-2.05-9.26c-1.8-13.62-2.82-19.23-4.38-24.13-.86-2.7-1.56-6.33-1.56-8.07s-1.12-6.4-2.5-10.33-2.5-8.4-2.52-9.92c-.01-1.52-1.58-7.27-3.5-12.77-1.9-5.5-3.47-11.16-3.47-12.59s-1.84-7.04-4.07-12.5c-4.8-11.7-8.87-22.91-9.6-26.41a43 43 0 0 0-2.43-6.74 39 39 0 0 1-1.91-4.71c0-.26-1.51-3.75-3.36-7.76s-4.15-9.09-5.1-11.29c-3.73-8.58-7.15-16.22-11.66-26-1.78-3.85-3.35-7.63-3.5-8.4a3.4 3.4 0 0 0-1.2-2c-1.12-.71-6.33-10.25-14.23-26.1-3.16-6.33-6.72-12.38-7.91-13.46s-4.24-5.8-6.78-10.5c-2.53-4.7-5.85-9.98-7.36-11.74-1.52-1.77-4.56-6.27-6.75-10s-4.86-7.52-5.92-8.4c-1.05-.9-3.37-4.15-5.15-7.26-1.77-3.1-3.64-5.64-4.14-5.64s-2.14-1.91-3.64-4.25a92 92 0 0 0-6.26-8.38 474 474 0 0 1-8.54-10.4c-2.75-3.45-6.57-7.99-8.5-10.09s-5.75-6.35-8.5-9.45c-8.76-9.88-35.24-36.32-44.07-44.02-4.7-4.1-10.64-9.46-13.22-11.93-2.57-2.46-5-4.48-5.4-4.48s-2.3-1.46-4.19-3.25a99 99 0 0 0-6.28-5.42c-1.56-1.2-4.26-3.33-5.98-4.75s-3.6-2.58-4.14-2.58-1.73-1.12-2.63-2.5-2.23-2.5-2.96-2.5c-.72 0-2.14-.9-3.13-2-1-1.1-2.24-2-2.77-2s-3.04-1.7-5.6-3.8c-4.3-3.52-8.07-6.25-12.01-8.7-.9-.56-5-3.26-9.12-6a484 484 0 0 0-9.17-6c-28.45-17.16-38.02-22.44-60.83-33.57-15.33-7.47-21.91-10.55-26-12.17a64 64 0 0 1-4.16-1.83c-.92-.46-5.42-2.24-10-3.96s-9.47-3.6-10.84-4.18-3.62-1.5-5-2.06l-4.5-1.82c-1.1-.45-5.6-2-10-3.43s-8.9-3-10-3.47c-2.08-.9-12.73-4.05-20.5-6.06a72 72 0 0 1-6.5-1.98c-2.32-.93-8.47-2.53-17-4.44-3.3-.73-7.12-1.62-8.5-1.98-10.75-2.75-49.15-9.88-59.5-11.03-2.75-.3-8.6-1-13-1.55-47.16-5.85-101.68-5.48-152 1.02-16 2.06-21.07 2.88-24.84 4-2.11.64-4.43.93-5.14.65-.72-.27-4.1.37-7.5 1.43s-7.68 1.93-9.48 1.93-5.2.67-7.54 1.5-5.55 1.5-7.14 1.5c-1.6 0-6.15 1.14-10.13 2.54a87 87 0 0 1-12.73 3.37c-3.03.46-9.55 2.26-14.5 3.99-12.57 4.4-14.9 5.1-16.84 5.1-.94 0-10.36 3.53-20.93 7.85s-20.48 8.16-22 8.53a62 62 0 0 0-8 3c-2.88 1.29-7.7 3.41-10.73 4.73-3.03 1.31-8.2 3.81-11.5 5.55-7.37 3.9-25.57 12.9-35 17.33a86 86 0 0 0-12.07 7.05c-2.8 2.07-9.1 5.92-14 8.55s-10.73 6.23-12.93 8a74 74 0 0 1-9 5.93 50 50 0 0 0-8 5.45 58 58 0 0 1-8.5 5.85 47 47 0 0 0-8.89 6.65c-1.87 1.94-3.93 3.53-4.6 3.53s-3.86 2.24-7.1 4.97c-3.25 2.74-8.54 7.12-11.76 9.75-3.21 2.63-7.03 5.9-8.47 7.28a50 50 0 0 1-4.95 4.1c-7 4.83-57.23 54.57-57.23 56.68 0 .36-1.14 1.79-2.53 3.18a185 185 0 0 0-11.97 13.48 66 66 0 0 1-5.25 5.84c-1.24 1.14-2.25 2.5-2.25 3 0 1.2-3.8 6.14-7.25 9.43-1.51 1.44-2.75 3.05-2.75 3.57s-1.69 3.03-3.75 5.59c-2.06 2.55-4.2 5.36-4.75 6.24s-2.35 3.52-4 5.88a168 168 0 0 0-4 5.94c-.55.9-1.57 2.3-2.26 3.1-2.31 2.71-9.24 13.71-9.24 14.7 0 .52-.9 1.78-2 2.77-1.1 1-2 2.2-2 2.66 0 .48-1.49 3-3.31 5.6a71 71 0 0 0-4.01 6.24c-.39.83-1.74 3.3-3 5.5-1.27 2.2-4.05 7.15-6.17 11a408 408 0 0 1-5.67 10c-1 1.65-2.27 4.03-2.82 5.28-.84 1.94-10.86 22.72-17.14 35.57-1.03 2.1-1.88 4.23-1.88 4.72s-1.09 3.25-2.41 6.15c-3.62 7.93-12.24 29.93-12.85 32.78-.45 2.14-3.32 10.79-5.82 17.5l-1.48 4c-.4 1.1-2.05 6.72-3.64 12.5s-3.38 12.08-3.94 14c-3.12 10.58-9.63 40.34-11.83 54-3.38 21.11-6.89 48.04-7.48 57.5l-1.19 19.5c-.6 9.94-.62 30.78-.1 82 .21 19.7-.06 24.3-2.14 37-1.32 7.97-2.73 14.95-3.14 15.5s-1.06 2.58-1.43 4.5c-.87 4.46-10.49 28.84-11.66 29.57-.5.3-.89 1.18-.89 1.96 0 1.56-8.87 16.99-12.91 22.47-1.43 1.92-2.91 3.95-3.3 4.5-2.8 3.92-14.14 16.88-18.39 21-9.37 9.08-14.37 13.5-15.26 13.5-.49 0-2.82 1.77-5.18 3.92-3.8 3.48-12.08 8.38-29.2 17.32a70 70 0 0 1-10.76 4.33c-3.03.87-8.72 2.9-12.66 4.5a72 72 0 0 1-14.13 3.9c-3.83.54-8.04 1.39-9.34 1.88-7.59 2.85-51.17 3-58.87.2-1.37-.5-5.65-1.42-9.5-2.05-6.68-1.08-14.39-3.12-19.25-5.09a407 407 0 0 0-12.75-4.96c-5.6-2.1-12-5.03-15.5-7.08a39 39 0 0 0-3-1.56 67 67 0 0 1-6-3.76 88 88 0 0 0-7.25-4.48c-1.51-.77-2.75-1.78-2.75-2.24s-.5-.83-1.13-.83c-3.94 0-34.35-29.58-40.31-39.22a145 145 0 0 0-6.34-8.93c-6.94-9.1-24.22-48.53-24.22-55.28 0-1.9-.5-4.7-1.1-6.25-4.5-11.38-5.26-55.18-1.25-70.32.37-1.37.72-2.95.8-3.5.67-5.38 3.31-15.37 5.55-21 .43-1.1 1.55-4.25 2.49-7 2.42-7.14 10.28-23.43 13.1-27.18 1.33-1.75 2.41-3.46 2.41-3.79s2.36-4 5.25-8.15l6.25-9.01c.55-.8 3.4-4.02 6.33-7.16s6.07-6.84 6.99-8.21c1.68-2.54 6.85-8.44 13.18-15.03 7.72-8.05 26.58-30.53 35.3-42.1 12.72-16.84 17.7-23.77 17.7-24.6 0-.51 1.13-1.98 2.5-3.27 1.38-1.3 2.5-2.74 2.5-3.21 0-.78 3.72-6.55 5.03-7.79.28-.28 2.07-3.09 3.96-6.25s3.79-5.75 4.22-5.75.79-.57.79-1.27 1.57-3.67 3.5-6.59 3.5-5.48 3.5-5.68 1.3-2.59 2.9-5.3c8.91-15.1 28.9-54.79 33.08-65.66.42-1.1 1.69-4.03 2.82-6.5 2.91-6.4 9.25-23.4 14.18-38 2.31-6.87 4.6-13.4 5.1-14.5.84-1.93 4.13-13.73 6.13-22 .53-2.2 1.33-4.9 1.77-6 1.25-3.06 6.11-23.42 9.09-38 2.84-13.94 8.8-52.67 9.32-60.5.23-3.58.98-13.25 1.66-21.5 2.93-35.27 1.23-88.48-4.07-127-3.1-22.61-4.77-32.37-6.47-37.9-.83-2.7-1.51-6.35-1.51-8.1s-.9-5.8-2-9-2-7.05-2-8.57c0-1.51-1.35-6.88-3-11.93s-3-10.27-3-11.61-1.52-6.36-3.37-11.16a150 150 0 0 1-5.13-16.23c-2.26-9.67-15.04-40.45-33-79.5-6.66-14.48-14.99-30.58-18.1-35-1.94-2.75-5.59-9.05-8.1-14s-6.03-10.7-7.82-12.8a67 67 0 0 1-6.52-10c-1.8-3.4-4.5-7.33-6.01-8.7s-3.78-4.52-5.05-7a48 48 0 0 0-5.95-8.5c-2-2.2-4.85-6.14-6.33-8.75s-3.14-4.75-3.67-4.75c-.54 0-2.57-2.5-4.53-5.56-1.95-3.05-4.22-5.8-5.02-6.12-.81-.3-2.17-1.91-3.03-3.56a34 34 0 0 0-4.7-6.3c-1.75-1.82-5.42-5.9-8.17-9.07-9.36-10.8-13.99-15.66-30-31.48-8.8-8.7-16.9-16.67-18-17.73s-7.18-6.29-13.5-11.62-12.89-10.9-14.58-12.37a89 89 0 0 0-5.91-4.69 233 233 0 0 1-6.42-4.77 597 597 0 0 0-20.59-15.23c-3.07-2.2-6.87-5.01-8.44-6.25s-3.13-2.25-3.47-2.25c-.33 0-2.85-1.57-5.59-3.5s-5.38-3.5-5.87-3.5-1.48-.72-2.22-1.6a11 11 0 0 0-3.37-2.55 48 48 0 0 1-4.04-2.16c-2.3-1.4-11.15-6.71-13.65-8.19-.93-.55-4.2-2.33-7.27-3.96s-5.58-3.31-5.58-3.75-.87-.79-1.94-.79-2.18-.38-2.46-.85c-1.3-2.08-54.74-27.53-60.3-28.7-.66-.14-4.09-1.62-7.62-3.3a109 109 0 0 0-11.8-4.68c-2.96-.9-6.28-2.02-7.38-2.48-4.9-2.03-16.74-6.07-25-8.53a752 752 0 0 1-13.29-4.07c-2.35-.76-5.14-1.39-6.19-1.39-1.04 0-2.15-.4-2.45-.88-.3-.5-1.79-1.12-3.3-1.4-1.53-.27-6.82-1.47-11.77-2.67-25.25-6.08-37.17-8.31-66.92-12.53-22.64-3.2-28.72-3.8-51.08-5.11-9.4-.55-49.34-1.22-49.76-.84"/></svg>