<svg xmlns="http://www.w3.org/2000/svg" fill-rule="evenodd" aria-label="FLORALE SCHMIEDE" viewBox="0 0 1030 200"><path fill="#787e7e" d="M71.76 5.41a32 32 0 0 0-4.22 2.26l-.76.5c-.3.18-1.26.84-1.77 1.2l-.57.45c-.15.14-.3.25-.33.25s-.18.12-.35.26l-.7.59-.61.51-.76.7a38 38 0 0 0-6.5 7.84l-.11.2c0 .02-.1.16-.2.32s-.26.4-.32.53l-.27.47a50 50 0 0 0-1.88 3.8c0 .03-.16.43-.36.9a11 11 0 0 0-.5 1.35 8 8 0 0 0-.41 1.18c-.14.34-.7 2.42-.92 3.4-.41 1.88-.72 4.1-.84 6.03a57 57 0 0 0 .03 5.28 10 10 0 0 0 .14 1.34 30 30 0 0 0 .5 3.13c.03.08.06.24.06.34s.05.37.12.58.12.47.12.56.05.32.12.5c.06.16.13.43.16.58.02.16.12.51.22.8.1.28.23.72.3.97s.26.83.45 1.3l.4 1.03a58 58 0 0 0 1.82 3.98c.24.52.6 1.16.9 1.63.07.08.2.32.3.52.11.2.3.51.43.7.14.18.38.54.54.79a18 18 0 0 0 1.33 1.85 18 18 0 0 0 1.25 1.54 46.36 46.36 0 0 0 4.2 4.23c.4.35 1.03.87 1.07.87.02 0 .27.18.54.4a15 15 0 0 0 1.13.87 51 51 0 0 0 2.95 1.88l.28.17c.37.24 1.08.6 2.23 1.17.55.27 1.05.51 1.1.55l.52.2c.22.1.43.18.47.21q.07.05.22.1c.08.02.56.2 1.06.4 1.58.6 2.25.81 4.12 1.3 1.15.29 1.8.43 2.52.54.35.05.72.12.82.15s.34.07.54.1c.2.01.37.04.4.05l.6.07a49.79 49.79 0 0 0 5.77.3c2.52.04 3.77.23 5.06.8l.46.18c.15.06.47.22.72.37.24.14.46.26.49.26s.1.05.15.12q.1.11.17.12c.33 0 2.4 1.98 2.84 2.7.08.13.22.34.32.46.56.64 1.47 3.02 1.62 4.21a12.54 12.54 0 0 1-.03 3.75 11 11 0 0 1-4.21 6.84c-.03 0-.17.1-.32.24a13 13 0 0 1-4.24 1.8 11.54 11.54 0 0 1-5.18-.28l-.8-.31a9 9 0 0 1-2.18-1.08 1 1 0 0 1-.2-.15q-.09-.1-.16-.1-.08-.01-.18-.12a2 2 0 0 0-.38-.26c-.14-.07-.26-.15-.26-.18a41 41 0 0 0-5.65-5.05c-.3-.18-.82-.56-.92-.65q-.1-.1-.2-.11a.2.2 0 0 1-.13-.08 2 2 0 0 0-.35-.26l-.73-.45c-.56-.36-.61-.4-.97-.58l-.37-.22a43 43 0 0 0-6.42-2.9l-.46-.16-.45-.14c-.37-.15-.38-.15-2.24-.65a38 38 0 0 0-15.26-.75 23 23 0 0 0-2.67.5c-.18.03-.51.1-.73.17l-.73.18c-.18.04-.61.16-.96.28-.34.11-.67.2-.72.2-.06 0-.28.07-.5.15-1 .37-1.75.67-2.05.8a17.64 17.64 0 0 0-2.74 1.16c-.05.04-.61.34-1.24.67-1.26.63-1.34.68-1.76.97a6 6 0 0 1-.6.36c-.17.09-.45.26-.61.39l-.64.42c-.19.1-.43.28-.55.37l-.5.38a16 16 0 0 0-1.75 1.34 42 42 0 0 0-5.5 5.54 24 24 0 0 0-1.17 1.52q-.12.14-.42.59l-.73 1.1-.21.32-.21.33c0 .02-.1.17-.22.34l-.2.33-.3.53c-.47.8-.75 1.32-.96 1.75l-1.04 2.24a48 48 0 0 0-1.39 3.73l-.49 1.73a44 44 0 0 0-1.14 6.5 47.22 47.22 0 0 0 .05 7.15 60 60 0 0 0 .62 3.9c.05.17.1.38.1.47s.03.28.09.43.12.43.15.62c.03.2.11.51.18.7s.18.57.24.85c.07.29.2.73.3.98s.2.52.2.59q.01.12.05.13a86.19 86.19 0 0 0 2.74 6.18c.12.19.3.52.41.74s.32.56.46.76.34.52.45.72.29.48.4.61c.1.13.28.4.39.58a4 4 0 0 0 .36.51c.1.1.26.33.36.5.11.18.22.32.25.32s.13.12.22.26.26.37.38.51l1 1.2.52.58a56 56 0 0 0 3.27 3.2 34 34 0 0 0 3.13 2.44c.17.11.33.23.36.26.16.14.69.47.84.53q.16.07.17.12t.15.11c.09.04.34.2.57.35a4 4 0 0 0 .66.38 51 51 0 0 0 4.17 2.1 42 42 0 0 0 1.82.73l.75.27a32.15 32.15 0 0 0 4.25 1.21 56 56 0 0 0 2.6.51c.27.05 1.08.15 1.4.17l.52.06c1.3.17 3.62.24 5.61.18a54 54 0 0 0 4.58-.47c.35-.08.96-.2 1.37-.26a11 11 0 0 0 1.36-.31c.65-.15 1.1-.27 1.79-.48l1.12-.33c.2-.06.62-.21.93-.34s.61-.24.65-.24.26-.08.5-.19a18.94 18.94 0 0 0 2.86-1.22c.05-.05.59-.33 1.19-.64 1.44-.72 1.5-.76 1.56-.84a1 1 0 0 1 .21-.16c.53-.28 1.1-.61 1.4-.83.48-.34 1.08-.75 1.4-.95.15-.1.4-.29.57-.43s.31-.26.34-.26.21-.14.4-.3L79.6 154a29 29 0 0 0 1.72-1.57 37 37 0 0 0 3.18-3.48l.6-.73q.12-.12.13-.2 0-.06.1-.13c.04-.05.19-.23.3-.42a5 5 0 0 1 .39-.54q0-.05.1-.17t.17-.22l.45-.68c0-.02.1-.19.24-.38.46-.7.61-.93.61-.98 0-.02.1-.18.2-.34l.32-.55.25-.46a47 47 0 0 0 2.05-4.39 12 12 0 0 0 .5-1.4 45 45 0 0 0 .9-2.94l.17-.7.22-.94a25 25 0 0 0 .45-2.63l.15-1.22c.2-1.59.24-2.85.19-7.19a10 10 0 0 1 .91-4.9 11 11 0 0 1 3.99-4.77 14 14 0 0 1 3.54-1.52 13 13 0 0 1 5.36.1l.94.3.56.23a12 12 0 0 1 2.5 1.5 12 12 0 0 1 2.47 2.7 11.08 11.08 0 0 1 .96 9.95 12 12 0 0 1-2.26 3.5q-.15.14-.16.22a2 2 0 0 1-.35.44 24 24 0 0 0-2.3 2.66c-.2.26-.43.54-.5.61q-.12.12-.13.19-.01.06-.15.2t-.15.2c0 .03-.06.13-.13.21a8 8 0 0 0-.8 1.14l-.42.62-.13.2c-.02.04-.1.2-.2.33a6 6 0 0 0-.38.67l-.27.45-.37.67a42 42 0 0 0-2.9 6.82 40 40 0 0 0-1.73 9.28 45 45 0 0 0 .38 8.18 41 41 0 0 0 1.74 6.93l.47 1.24.33.79 1.2 2.64.52 1c.26.52.58 1.08.7 1.24.12.17.29.45.38.63s.3.5.45.73.36.52.45.67.25.4.36.53l.8 1.08.44.59a14 14 0 0 0 1.23 1.48 21 21 0 0 0 1.78 1.9c.47.49 1.16 1.14 1.67 1.58.21.19.46.41.54.5q.15.16.22.17c.03 0 .12.05.19.12a28 28 0 0 0 3.16 2.4l.91.59c.24.16.47.29.5.29q.06 0 .16.12.1.1.16.12a50.64 50.64 0 0 0 5.95 2.87 4 4 0 0 0 .8.26 31 31 0 0 0 5.04 1.48l.6.12 1 .18c.53.11 1.14.2 1.98.28.17.01.5.05.76.09 1.3.18 6.88.2 7.16.02l.46-.06c.57-.04.76-.06 1.32-.14.27-.04.68-.1.92-.12l.6-.12c.08-.04.24-.07.35-.07s.39-.05.64-.11l1.2-.29c.4-.09.93-.23 1.18-.3.25-.08.64-.19.87-.24.23-.06.6-.18.82-.27s.58-.21.8-.27c.37-.1 2.81-1.15 2.93-1.25.03-.03-.03-.26-.16-.56l-2.04-4.57a258 258 0 0 0-2-4.53q0-.08-.06-.14c-.03-.03-.1-.2-.18-.37l-.3-.7a262 262 0 0 1-1.96-4.35l-3-6.74-3.35-7.52-3.33-7.46-1.5-3.4-1.05-2.33-.38-.85a39 39 0 0 1-.85-1.94 207 207 0 0 1-1.97-4.4l-3.74-8.37-1.07-2.43a530 530 0 0 1-3-6.73l-2.28-5.1c-.46-1.06-.46-1.06-.74-1.66a12 12 0 0 1-.45-1.02l-1.54-3.44-.32-.73-.32-.73-.83-1.85-3.1-6.98a951 951 0 0 0-3.6-8.06l-1.76-3.95a267 267 0 0 0-1.96-4.4 428 428 0 0 1-2.73-6.12l-.88-1.97a1535 1535 0 0 1-5.05-11.33 89 89 0 0 1-1.27-2.87 78 78 0 0 1-1.34-3.01l-1.57-3.5a699 699 0 0 0-3.21-7.23l-1.1-2.45-2.15-4.83-2.27-5.1-1.58-3.54-1.73-3.88-1.5-3.37-1.52-3.4-.32-.72-.32-.73a120 120 0 0 1-1.29-2.88l-1.03-2.3a168 168 0 0 0-1.84-4.13l-3.01-6.77c-.14-.31-.3-.58-.34-.58-.05-.01-.2.04-.36.11"/><path fill="#4e9c24" d="m102.32 16.3-.9.04a54 54 0 0 0-4.4.45c-.23.03-.5.1-.59.13-.1.03-.27.07-.4.07-.12 0-.33.04-.48.09s-.43.11-.63.14-.5.1-.65.15c-.14.06-.34.1-.43.1-.1 0-.43.1-.75.21-.32.12-.7.23-.86.25s-.6.16-.96.31a13 13 0 0 1-1.28.47l-.52.19c-.18.06-.45.17-.6.24l-.52.24c-.42.18-.51.23-.51.28 0 .04.14.37 1.44 3.27l2.95 6.64 1.65 3.7 1.24 2.76 2.11 4.75a3920 3920 0 0 0 7.32 16.42l3.49 7.83 2 4.49 1.21 2.73 5.23 11.73 12.42 27.88 3 6.73 2.84 6.37a8797 8797 0 0 1 10.97 24.6l3.09 6.94 1.4 3.13a3157 3157 0 0 0 7.06 15.86l7.23 16.23 5.22 11.7c.35.85.5 1.07.64 1.01a16 16 0 0 0 2.25-1.12c.1-.08.5-.3.89-.5.38-.19.8-.42.92-.52s.45-.3.73-.45.58-.35.68-.45c.1-.09.32-.24.49-.34.17-.09.4-.26.53-.37.12-.1.33-.25.46-.32a1 1 0 0 0 .31-.24c.04-.07.22-.21.4-.31s.36-.24.4-.3c.02-.06.19-.2.35-.3.17-.1.3-.21.3-.24s.1-.13.22-.2c.24-.17 1.01-.86 1.67-1.5l.58-.56c.07-.05.4-.4.75-.77l.8-.85c.16-.17.77-.9 1.02-1.21l.32-.37q.16-.17.17-.23t.15-.16q.13-.1.15-.17.02-.1.38-.54l.2-.26.21-.31c.43-.64.58-.86.65-.93q.07-.09.08-.14c0-.04.1-.18.21-.32.12-.15.21-.28.21-.3s.1-.19.22-.37.2-.36.2-.39q.01-.06.1-.14a1 1 0 0 0 .16-.2l.18-.34a11 11 0 0 0 .47-.85 76.78 76.78 0 0 1 .49-.91 42 42 0 0 0 1.86-4.3c.02-.12.06-.25.08-.3q.08-.16.24-.57a32 32 0 0 0 .82-2.8l.42-1.82a51 51 0 0 0 .69-5.13 61 61 0 0 0-.01-5.12l-.08-1a53 53 0 0 0-.59-3.84c-.05-.2-.09-.37-.07-.4s-.03-.26-.12-.52a3 3 0 0 1-.14-.63c0-.1-.07-.36-.15-.59-.09-.23-.16-.5-.16-.6s-.1-.42-.21-.74a10 10 0 0 1-.43-1.4c-.02-.13-.68-1.75-1.03-2.53a35 35 0 0 0-4.11-7.45 2 2 0 0 0-.27-.36 1 1 0 0 1-.25-.33 3 3 0 0 0-.34-.45c-.1-.12-.27-.33-.36-.47s-.18-.26-.22-.26q-.06-.02-.22-.26a4 4 0 0 0-.36-.47l-.43-.46a53 53 0 0 0-2.35-2.45 43.72 43.72 0 0 0-2.41-2.12 19.02 19.02 0 0 0-1.98-1.44 4 4 0 0 1-.51-.38 19.15 19.15 0 0 0-1.45-.91c-.03 0-.16-.08-.3-.17a9 9 0 0 0-1.03-.6 10 10 0 0 0-.9-.5 85 85 0 0 0-2.74-1.3 22 22 0 0 0-1.3-.52c-.13-.06-.46-.18-.73-.27l-.59-.22a1 1 0 0 0-.2-.06 11.18 11.18 0 0 0-7.67-1.73c-.22-.01-.58-.05-.82-.08l-.78-.07a85.1 85.1 0 0 0-4.62-.16c-1.66-.02-3.24-.23-3.82-.5a12.43 12.43 0 0 1-1.55-.63 15 15 0 0 1-1.8-1.14c-.46-.34-.9-.76-1.8-1.7a3 3 0 0 1-.36-.49 2 2 0 0 0-.29-.4 15 15 0 0 1-1.5-3.36c-.05-.21-.11-.52-.16-.69l-.08-.42-.06-.68a12 12 0 0 1 .29-3.75c.03-.04.07-.17.09-.3a2 2 0 0 1 .22-.58l.06-.18c0-.04.05-.2.12-.35l.18-.41a11 11 0 0 1 1.12-1.94l.47-.58a12 12 0 0 1 1.65-1.6 11.36 11.36 0 0 1 7.2-2.3 11.5 11.5 0 0 1 6.06 2.12c.18.13.42.28.53.33.1.05.2.1.2.12 0 .03.26.31.57.64.32.33.58.62.58.64q0 .05.07.05c.04 0 .25.2.48.42.22.24.42.43.44.43.01 0 .2.16.4.35a17 17 0 0 0 1.03.92l.52.43a22 22 0 0 1 1.2.94l.63.42q.17.12.22.2.05.07.13.08t.22.15q.13.13.19.15c.03 0 .19.1.35.21.17.12.32.21.34.21l.32.2a47 47 0 0 0 5.1 2.73l.7.29c.27.1.63.26.8.34s.4.16.5.18l.3.09a13 13 0 0 0 1.5.54 39 39 0 0 0 8 1.64c1.58.13 1.95.15 3.86.14a33 33 0 0 0 5.55-.41c.13 0 .38-.04.54-.08.5-.11 1.02-.2 1.37-.26.18-.03.45-.09.6-.14s.35-.1.45-.1.4-.07.64-.15c.24-.09.56-.17.7-.19s.5-.13.8-.24.69-.23.88-.26c.18-.04.74-.23 1.24-.44s1.2-.48 1.56-.6a7 7 0 0 0 1.23-.52c.16-.06.44-.18.6-.28l1.43-.72c.61-.3 1.28-.67 1.48-.81s.57-.36.82-.49.54-.3.64-.4.37-.27.6-.4c.24-.12.47-.28.5-.33.05-.06.27-.22.5-.35.23-.14.43-.29.45-.33s.19-.18.38-.28c.18-.11.35-.24.37-.28s.17-.17.33-.27c.17-.11.33-.24.37-.3q.1-.1.26-.22c.1-.06.28-.2.4-.32l.54-.5.58-.51a43 43 0 0 0 3.3-3.48q.01-.06.15-.17.15-.1.16-.17t.13-.2q.14-.1.2-.2a46.44 46.44 0 0 1 1.21-1.6q.14-.2.15-.25.01-.06.1-.14c.17-.18.96-1.4 1.03-1.6q.04-.1.1-.1c.02 0 .09-.1.14-.2s.14-.28.21-.38.14-.23.16-.28l.25-.43a34 34 0 0 0 2.5-5.36l.12-.29c.13-.31.26-.69.28-.77.02-.11.2-.6.27-.73.02-.05.07-.2.09-.35s.07-.27.1-.29q.05-.04.05-.18t.06-.28a30 30 0 0 0 .81-3.33 34 34 0 0 0 .6-4.24c.18-1.58.16-4.66-.05-6.58-.05-.5-.1-1-.09-1.13 0-.11-.03-.3-.07-.42a1 1 0 0 1-.05-.44 1 1 0 0 0-.05-.35c-.04-.07-.1-.32-.13-.56a9 9 0 0 0-.26-1.47c-.06-.16-.1-.38-.1-.49s-.07-.38-.15-.62a3 3 0 0 1-.15-.6c0-.1-.1-.44-.22-.78a4 4 0 0 1-.2-.76c0-.09-.12-.43-.25-.76a15 15 0 0 1-.59-1.6l-.14-.41-.12-.29-.2-.47-.31-.68-.92-2.09a4.76 4.76 0 0 0-1.42-2.52 4 4 0 0 1-.4-.64c-.16-.28-.36-.6-.46-.71-.09-.1-.27-.38-.4-.6-.14-.23-.3-.46-.36-.52-.07-.05-.2-.25-.32-.44-.1-.18-.22-.34-.25-.34q-.06-.02-.22-.26c-.09-.14-.26-.37-.38-.5l-.52-.63a15 15 0 0 0-1.03-1.2 50 50 0 0 0-3.8-3.66q-.06-.01-.25-.2a6 6 0 0 0-.75-.61 1 1 0 0 0-.25-.16q-.06-.02-.16-.15-.09-.14-.18-.15t-.19-.12-.17-.12c-.03 0-.18-.1-.34-.23a7 7 0 0 0-.72-.53l-1.11-.73a38 38 0 0 0-5.27-2.77l-.25-.11-.61-.24-1.23-.5-.61-.2-.6-.21a16 16 0 0 0-1.64-.49 9 9 0 0 0-1.04-.27l-.51-.12a49 49 0 0 0-4.4-.76 38 38 0 0 0-10.73.3 1 1 0 0 1-.3.04c-.05-.01-.26.02-.46.09s-.47.12-.58.12-.31.04-.46.09c-.14.05-.33.09-.43.09s-.37.07-.61.15a5 5 0 0 1-.78.2c-.18.03-.57.14-.88.25-.76.26-.9.3-1.02.3-.05 0-.62.22-1.27.48a25 25 0 0 1-1.82.7l-.65.29a70.29 70.29 0 0 1-2.82 1.39c-.23.1-.56.3-.73.43-.17.12-.55.35-.85.51s-.65.38-.78.49c-.14.1-.38.27-.55.36s-.38.24-.48.33-.34.25-.52.35-.43.29-.54.4c-.11.13-.24.22-.28.22s-.23.14-.43.3l-1.23 1.04a43.61 43.61 0 0 0-5.1 5.23c0 .07-.23.37-.44.57q-.16.16-.17.22c0 .03-.1.18-.23.34a6 6 0 0 0-.53.73l-.38.55c-.14.17-.56.83-.56.9 0 .02-.05.1-.12.16q-.11.1-.12.16c0 .03-.1.18-.2.34a4 4 0 0 0-.43.71 55 55 0 0 0-1.93 3.76c-.06.12-.1.25-.1.28s-.08.2-.16.38a26 26 0 0 0-1.13 3.05l-.09.24-.22.76-.24.85a40 40 0 0 0-1.24 7.94c-.04.6-.04 1.87 0 4.98a10 10 0 0 1-.41 3.45 12 12 0 0 1-1.75 3.55c-.17.24-.86 1.03-1.11 1.28q-.85.82-.93.82a10.03 10.03 0 0 1-3.5 1.82c-.24.1-.63.2-.86.24a12.46 12.46 0 0 1-4.14.13l-.58-.13c-.4-.07-.87-.2-1.17-.31l-.77-.3a7 7 0 0 1-1.48-.75l-.44-.28q-.16-.07-.17-.13 0-.05-.07-.05c-.24 0-2.08-1.8-2.45-2.38l-.38-.54a14 14 0 0 1-1.47-3.36 11.76 11.76 0 0 1-.1-4.86 7 7 0 0 1 .5-1.7 10 10 0 0 1 1.25-2.36l.38-.55.39-.44c.18-.19.37-.41.42-.5.1-.15.42-.5.8-.9a41 41 0 0 0 3.22-4.05q0-.06.15-.2t.15-.2c0-.04.22-.4.3-.47.02-.01.13-.18.24-.38.12-.19.23-.34.26-.34q.05-.01.05-.08c0-.04.1-.22.21-.4.12-.18.21-.33.21-.35l.18-.32a47 47 0 0 0 2.18-4.37c.17-.4.56-1.42.86-2.31l.3-.88c.06-.12.26-.83.38-1.33l.1-.37c.08-.18.38-1.42.56-2.3.17-.85.53-3.2.56-3.67l.1-1.3c.18-2.15.08-5.37-.24-7.71a18 18 0 0 0-.4-2.3c-.05-.16-.09-.39-.09-.5s-.05-.34-.12-.54-.12-.43-.12-.52-.08-.41-.18-.72c-.1-.3-.18-.62-.18-.7 0-.09-.1-.4-.2-.68a42.57 42.57 0 0 0-2.31-5.8c-.42-.89-.92-1.86-1.11-2.13a9 9 0 0 1-.5-.85c-.14-.3-.36-.65-.47-.78-.1-.12-.28-.4-.4-.6-.1-.21-.26-.45-.36-.53a2 2 0 0 1-.3-.43 3 3 0 0 0-.36-.51 4 4 0 0 1-.39-.53c-.09-.16-.19-.3-.22-.3s-.16-.14-.27-.33a1 1 0 0 0-.3-.37c-.06-.02-.14-.12-.2-.22-.04-.1-.17-.27-.28-.38l-.5-.55c-.56-.65-.84-.95-1.81-1.9l-1.1-1.08-.81-.7-1.25-1.04-.39-.3a36 36 0 0 0-4.52-2.98c-.18-.1-.33-.2-.33-.22q-.01-.05-.12-.05t-.15-.05a34 34 0 0 0-4.12-1.94 7 7 0 0 0-1.17-.44 21 21 0 0 0-2.32-.76 2 2 0 0 0-.37-.09q-.11 0-.15-.05-.05-.05-.2-.09c-.1-.01-.42-.08-.72-.16-1.53-.37-2.25-.5-4.06-.76-1.37-.2-1.74-.23-3.1-.3-.56-.04-2.99-.08-3.01-.06M508.71 70.3c-3.2.71-5.06 1.74-4.18 2.33.54.36.1.41-1.12.14-1.09-.25-1.76-.2-1.5.08.28.3-.1.95-.82 1.46-1.83 1.28-1.7 1.8 1.33 5.08 2 2.17 2.65 3.42 2.65 5.12 0 4.22-3.34 16.15-8.24 29.4-7.56 20.48-9.67 27.95-8.2 28.94 3.57 2.4 4.73 2.71 5.63 1.48.48-.66.88-1.66.88-2.23.01-.88.1-.9.62-.07.34.53.44 1.25.22 1.6-.21.34-.06.42.35.17s.55-.94.32-1.53q-.38-1.04.3-.65c.45.29.58-.04.36-.88-.19-.73-.02-1.33.38-1.33s.53-.49.3-1.1c-.3-.78-.19-.95.41-.58.64.4.73.15.38-.97-.33-1.04-.25-1.35.28-1.02.54.33.64-.04.33-1.24-.23-.94-.17-1.71.14-1.71s.62-.79.67-1.74c.06-.96.49-1.98.95-2.27.69-.42.7-.72.02-1.53-1-1.2.07-3.73 1.58-3.73.57 0 .8-.4.58-.98-.28-.71.12-.96 1.51-.93 1.04.02 2.93-.15 4.2-.36 5.62-.97 13.93-1.2 14.88-.41.55.46 1.58.6 2.4.34 1.04-.33 1.3-.23.94.35s-.1.68.94.35c.81-.26 1.85-.12 2.38.31.5.43 1.24.59 1.61.35.41-.25.53 0 .29.62q-.41 1.05.54.67c2.36-.9 4.58 3.34 7.47 14.26 1.4 5.29 4.44 9.83 6.5 9.7q1.66-.09 1.27-1.04c-.25-.66-.04-.82.72-.52.6.22 1.3.08 1.55-.32q.44-.72-.48-.22c-.51.29.02-.38 1.19-1.48 1.16-1.1 1.9-2.22 1.65-2.5s.21-.14 1.03.29c1.26.65 1.5 1.32 1.5 4.23.01 1.9.24 3.8.51 4.23.6.94 18.69.9 18.7-.05 0-.33 2.83-.44 6.45-.25 3.96.2 5.82.12 4.8-.23-1.14-.39-.44-.48 2.32-.3 2.77.18 3.58.07 2.65-.35-.96-.45-.6-.53 1.36-.28q2.69.32 4.1-.67c.79-.54 1.81-.91 2.29-.81.52.1.8-.36.72-1.15-.08-.73.01-.97.2-.53.2.43.79.62 1.31.42q.94-.34.97.87c.03 1.7 1.62 3.63 2.71 3.28 2.73-.86 4.64-1.06 4.26-.44-.23.36.83.23 2.34-.3 1.52-.54 3.32-.98 4-.98s1.25-.23 1.25-.5 2.6-.56 5.78-.63c3.35-.08 5.4.1 4.88.43-1.11.68.1 1.1 4.9 1.66 2.33.27 3.02.2 2.32-.28-.78-.52-.59-.66.9-.67 1.41-.01 1.8.24 1.51.98-.28.74.08.98 1.42.95 1.63-.04 1.68-.1.48-.67-.92-.43-.3-.5 1.98-.2 11.65 1.45 10.85 1.47 12-.28.58-.89.7-1.4.26-1.12-.6.37-.6.11.02-1.08 1.08-2.07 1.64-2.57 1.05-.95-.45 1.26-.43 1.26.89.07 1.42-1.3 1.8-2.05.69-1.36-.37.23-.66.1-.66-.29 0-.38.3-.7.66-.7 1.5 0 .51-2.7-1.57-4.28l-2.23-1.7-17.47.6c-16.25.58-20.42.45-17.58-.55.9-.31.64-.62-1.19-1.45-1.28-.58-2.17-.8-1.97-.48s.2.57 0 .57c-.18 0-.68-.63-1.1-1.4q-.76-1.44-.02-.96.68.4.33-.58c-.22-.56-.66-.86-.98-.66s-.41-.1-.2-.67c.22-.56.07-1.03-.33-1.03-.79 0-1.05-5.42-.3-6.18 1.25-1.24 2.84-7.34 2.04-7.84-.45-.3-.52-.54-.16-.54l7.4-.2c4.05-.1 6.59.07 6.36.44-.21.34-.02.4.41.13.44-.27 2.3-.13 4.15.3 1.84.45 3.01 1.02 2.6 1.28-.41.25.23.46 1.42.47 1.2 0 3.93.37 6.07.82 2.14.46 4.68.65 5.63.44 1.5-.34 1.57-.3.5.35-.69.42-2.3.58-3.64.36-1.67-.27-2.1-.19-1.42.25 2.19 1.4 7.89.17 6.87-1.47-.25-.4-.15-.55.23-.32 2.55 1.58 3.9-6.07 1.83-10.42-1.78-3.75-4.3-4.18-15.28-2.63-9.02 1.28-19.35.98-18.41-.53.2-.31-.5-.87-1.52-1.23-2.52-.88-4.19-5.02-4.19-10.37 0-2.25.29-4.28.64-4.5s.54-1.2.42-2.19c-.13-.98-.1-1.43.06-1 .16.44.64.68 1.07.55 2.6-.79 13.03-.93 12.88-.17q-.15.81 2.81.92c2.6.09 2.73.03 1-.42-1.62-.43-1.45-.48.92-.27 1.6.14 3.68.3 4.64.34 1.46.08 1.38.17-.6.6-2.84.62 4.44.33 7.62-.3 1.57-.32 1.7-.27.67.22-1.46.7-.4.96 1.26.32.58-.22.86-.7.64-1.07-.26-.41.14-.48 1.08-.19.9.29 1.33.22 1.1-.16-.22-.34.37-1.04 1.3-1.53.92-.5 2.31-1.81 3.08-2.92l1.4-2.01-1.55 1.32-1.55 1.33.76-1.45c1.16-2.21.97-2.66-1.9-4.37-3.05-1.82-6.06-1.83-17.59-.08-5.37.8-8 .87-13.48.3-9.88-1-15.25-.92-15.7.27-.2.54-.98 1.16-1.71 1.4-1.6.5-1.37 2.97.96 10.55 1.7 5.58 1.89 12.84.6 24.83a117 117 0 0 0-.45 17.56c.3 6.57.23 9-.26 8.29-.57-.81-.71-.7-.77.66-.06 1.47-.14 1.42-.69-.5-.38-1.3-1.07-2.17-1.76-2.22-2.59-.15-6.2.24-13.98 1.48-10.27 1.65-17.67.96-17.82-1.66-.02-.32-.8-1.08-1.75-1.7s-1.52-1.33-1.27-1.58c.25-.24.06-.44-.4-.44-.53 0-.72-.51-.5-1.33.18-.73.14-1.44-.1-1.6-.5-.3-.35-14.18.27-23.57.23-3.46.39-7.49.36-8.94-.03-2.04.12-2.42.65-1.66.51.73.6.1.3-2.32-.31-2.53-.23-3.07.33-2.32.58.77.65.34.35-1.87-.29-2.04-.19-2.73.35-2.4s.62-.3.29-2.27c-.26-1.5-.22-2.73.09-2.73.3 0 .6-2.06.64-4.57.08-4.03-.07-4.65-1.32-5.31-1.86-1-4.97-1.23-5.06-.39-.04.37-.67.88-1.4 1.15-3.4 1.26-3.58 3.04-3.45 36.07.1 28.01.03 30.57-.96 30.19q-1.06-.4-.28-.68c.96-.32 1.04-4.05.13-6.44q-.66-1.74 0-1.33c.36.22.66.1.66-.3 0-.38-.3-.7-.66-.7s-.66-.46-.66-1.03-.32-.83-.71-.6c-.39.25-.63.04-.53-.45.25-1.28-.73-3.88-1.46-3.88-.34 0-.58-.22-.54-.5.21-1.31-.14-2.18-.74-1.82-.37.24-.66-.32-.66-1.28 0-.93-.62-2.31-1.37-3.07a6.4 6.4 0 0 1-1.61-2.6c-.3-1.58-1.6-4.02-2.76-5.17a3 3 0 0 1-.88-1.8c0-.5-.35-1.11-.77-1.37q-.71-.44-.3.29c.27.42.32.76.13.76s-.68-.63-1.1-1.4c-.53-1-.54-1.28-.01-.95.52.32.5-.04-.03-1.23-.42-.92-1.07-1.49-1.44-1.26s-.46.08-.22-.31c.48-.77-1.66-4.8-2.65-5-.31-.06-.53-.5-.47-.99.05-.48-.07-.7-.27-.5-.42.42-2.1-1.63-2.12-2.6 0-.36.28-.21.63.33.38.58.65.67.66.21 0-.93-1.82-2.86-2.72-2.86-.35 0-.6-.37-.54-.83.16-1.33-.8-3.8-1.49-3.8-.34 0-.44.3-.21.66.22.36.27.66.1.66-.16 0-.95-1.1-1.74-2.44-1.16-1.97-1.22-2.26-.28-1.5 1.1.9 1.1.84-.02-1.07-1.24-2.13-4.17-5.95-3.32-4.33q.45.89-.2.5c-.4-.24-.57-.98-.4-1.64.18-.66-.2-1.63-.83-2.15-1.05-.87-1.08-.83-.35.54 1.48 2.77.35 1.51-2.52-2.81l-2.85-4.31-3.4.08c-1.87.04-4 .2-4.73.37m-75.18 1.87a1 1 0 0 1-1 1c-1 0-1.06.68-1.38 20.53-.04 2.73-.24 10.33-.43 16.89-.2 6.56-.13 10.88.14 9.6l.5-2.31.1 2.51c.1 2.9 2.6 24.56 3.1 26.82.33 1.5.35 1.5 2.33.34 2.11-1.25 2.45-2.07 2.8-6.82l.23-2.98.12 3.48c.06 1.9.4 3.47.74 3.47.73 0 .49-14.29-.27-16.07a2.2 2.2 0 0 1 .25-2.08c.41-.5.8-1.98.84-3.3.15-4 4.16-5.87 5.83-2.73.5.91 1.01 1.54 1.15 1.4.55-.55 10.51 11.18 18.61 21.91 3.02 4.01 4.29 6.34 4.84 8.92 1.07 5 3.43 7.2 7.47 6.96 1.68-.1 3.43-.57 3.88-1.05.68-.72.53-.73-.83-.09-1.52.72-1.56.7-.43-.2.67-.55 1.58-.85 2.01-.68.44.16 1.53-.5 2.42-1.48.9-.98 1.21-1.54.7-1.24q-.96.56-.43-.27c.27-.45.88-.67 1.35-.49 1.56.6.29-2.1-1.55-3.3-3.42-2.21-6.7-5.23-6.71-6.15 0-.52-.21-.74-.46-.5-.5.51-3.53-2.1-3.53-3.05 0-.34-.74-1.21-1.66-1.93s-1.46-1.63-1.22-2.02q.38-.65-.33-.24c-.68.42-1.06-.37-.84-1.76.04-.27-.3-.42-.75-.33-.45.1-.79-.35-.74-.98.06-.66-.2-.97-.6-.72-.42.25-.56.04-.34-.54.2-.53-.08-1.54-.63-2.26-1-1.28-1-1.28-.6.03.42 1.29.4 1.3-.54.07-.54-.7-.82-1.51-.63-1.82.2-.31.02-.57-.39-.57-.4 0-.57-.28-.36-.62s-.14-.93-.79-1.3c-.64-.38-.94-.7-.66-.7.6-.03-2.07-5.48-2.97-6.06-.35-.22-.14-.6.46-.83.62-.23.89-.75.62-1.18q-.44-.74.3-.29c.47.29 1.64-.41 2.87-1.72 1.15-1.21 1.89-1.86 1.64-1.44-.34.58-.05.58 1.2 0 .91-.42 1.66-1.12 1.66-1.55s.35-1 .77-1.26q.76-.47.27.46c-.27.5.5-.12 1.7-1.4s2.34-2.27 2.54-2.21c.2.05.27-.2.17-.55s.1-.48.42-.27c.79.48 2.19-1.2 1.94-2.33-.1-.48.26-.89.8-.91.55-.03.96-.56.9-1.18-.04-.63.15-1 .44-.82.77.48 1.28-1.33.83-3.02-.25-.96-.14-1.34.31-1.06.45.27.7-.46.7-1.98 0-1.77-.17-2.17-.64-1.5-.45.64-.53 0-.26-2.05.28-2.1.2-2.68-.27-1.99-.54.82-.66.83-.67.07 0-.51-.75-1.91-1.67-3.1-.9-1.2-1.65-2.43-1.65-2.73 0-.9-8.62-5.88-12.9-7.45-5.5-2.01-13.37-3.85-21.5-5.01-8.58-1.23-9.32-1.22-9.32 0M321.5 75c-.04.28-.04.72 0 1 .04.27-.2.5-.55.5-.78 0-4.09 3-3.72 3.38.15.14.03 1.3-.27 2.58l-.54 2.31-.07-2.69c-.05-2.03-.52-3.1-1.9-4.38-2.61-2.43-4.26-2.62-12.07-1.38-7.02 1.1-9.82 1.2-22.53.75-6.89-.24-6.98-.22-9.49 1.74l-2.53 1.99.42 3.97c.63 6 2.96 22.4 3.32 23.4.18.49-.59 2.2-1.7 3.82-3.52 5.12-3.76 6.65-1.45 9.1 3.38 3.57 3.75 4.85 4.18 14.7.44 10.1 1.1 12.4 3.94 13.57 2.33.97 7 .63 6.78-.5-.09-.45.29-.82.83-.82.55 0 1-.28 1-.61 0-.34.17-1.16.39-1.82.33-1.03.28-1.07-.37-.22-.6.77-.67.33-.35-2 .31-2.3.23-2.75-.35-1.98-.6.8-.67.61-.34-.88.29-1.32.18-1.74-.35-1.41q-.78.5-.32-.94c.29-.89.16-1.4-.33-1.4-.43 0-.6-.45-.4-1 .22-.55.06-1-.33-1-.4 0-.56-.59-.37-1.32.2-.8.08-1.16-.33-.9q-.65.37-.2-1.75c.3-1.33.23-2-.16-1.75-.4.24-.62-1.5-.57-4.5.04-2.7.22-4.88.4-4.85s.84-.17 1.47-.45c.62-.27 3.23-.07 5.8.44 2.56.52 4.66.7 4.66.4s-.65-.55-1.44-.55-1.28-.15-1.1-.34c.35-.34 6.9.54 9.82 1.33 1.35.37 1.47.3.66-.32-.8-.63-.56-.7 1.2-.4 1.2.2 2.02.11 1.83-.2-.2-.32.16-.54.8-.5.62.06 1.18-.35 1.23-.9l.18-1.98c.07-.78.2-.8.63-.14.44.7.7.67 1.37-.13.46-.55.61-1.34.35-1.76s-.08-1.01.4-1.3c.68-.42.7-.76.1-1.48-.44-.52-.63-1.1-.44-1.3.2-.18-.76-.87-2.12-1.52-2.4-1.13-2.65-1.13-8.14.26-6.64 1.67-9.17 1.76-12.31.45-2.6-1.1-3.03-1.74-.8-1.22l1.48.34-1.52-1.13c-.84-.62-1.94-.96-2.46-.76s-1.15.03-1.4-.38q-.44-.72.48-.2c.5.29.26-.12-.56-.92s-1.5-1.75-1.5-2.12-.34-.47-.76-.2q-.73.44-.27-.33c.27-.43.11-1.24-.34-1.8-.93-1.11-1.4-7.7-.5-7.15.3.19.55.05.55-.3 0-.36.2-1.17.45-1.8.32-.86.2-1.02-.44-.62q-.88.55-.4-.23c.27-.43.75-.62 1.07-.42s.93-.29 1.35-1.08c.74-1.38 1.08-1.42 8.15-1.1 4.06.2 6.63.12 5.72-.16l-1.66-.52 1.77-.06c.97-.04 1.9.3 2.04.76.2.57 1.92.83 5.52.83 5.6 0 9.17-.67 8.6-1.6-.44-.7 1.5-1.54 2.34-1.01.33.2.6.05.6-.33 0-1.5 1.86-.6 2.3 1.12.27 1 .63 16 .81 33.35.18 17.34.52 31.82.76 32.19s2.67.82 5.4 1.02c3.18.22 4.38.14 3.32-.22-1.07-.37.53-.49 4.55-.33 4.04.15 5.88.02 5.3-.4-.6-.4 1.54-.52 6.04-.34 3.94.16 6.38.05 5.64-.26-.97-.4-.52-.54 1.65-.53 1.64 0 3.73-.14 4.64-.33.9-.18 2.85-.53 4.3-.77 1.46-.23 3-.7 3.41-1.04.8-.65 1.58-5.96.82-5.49-.24.15-.62-.45-.85-1.34-.6-2.43-1.9-2.5-13-.66-10.61 1.76-14.9 1.75-18.86-.03-1.56-.7-1.7-.9-.66-.95 1.08-.05.95-.29-.77-1.33-1.15-.7-2.3-1.9-2.53-2.66-.24-.76-.76-1.18-1.15-.94q-.72.45-.27-1.32c.27-1.08.16-1.75-.27-1.75-.48 0-.67-2.84-.58-8.6.07-4.72.38-8.43.7-8.23.52.32.89-5.41.85-13.13 0-1.95.2-2.82.57-2.31.34.48.41-.34.18-2.01-.24-1.73-.13-2.82.29-2.82s.51-1.03.23-2.75c-.33-2.07-.24-2.63.37-2.25.6.37.7-.1.36-1.89-.3-1.62-.2-2.38.32-2.38s.62-.77.31-2.41c-.35-1.9-.26-2.3.4-1.89.65.4.76.14.44-1.06-.24-.88-.43-2.23-.44-3.01-.01-1.98-6.42-4.9-6.7-3.06m73.66 1.5c-4.87 1.3-6.45 1.98-4.64 1.98.51 0-.42.7-2.07 1.53-6.75 3.43-13.22 9.02-18.58 16.05-8.35 10.96-8.84 23.77-1.3 33.7 3.3 4.33 10.41 9.62 14.87 11.04 2.82.9 17.7 1.92 17.24 1.19-.4-.63 3.52-1.27 4.79-.78q1.11.43.63-.35c-.46-.73-.2-.88 1.75-1.04.46-.04 1.22-.51 1.7-1.06q.85-.95.42-.1c-.37.72-.19.75.95.14.77-.4 1.4-1.05 1.4-1.43s.28-.5.63-.29.95-.21 1.35-.95 1.1-1.34 1.57-1.34 1.56-.75 2.41-1.66 1.35-1.66 1.09-1.66-.15-.6.25-1.34 1.05-1.14 1.45-.89c.42.26.54.15.28-.27-.24-.4.18-1.71.94-2.92 1.18-1.86 1.33-1.94.96-.54-.4 1.57-.36 1.55.91-.3 1-1.46 1.16-2.18.62-2.83-.56-.67-.49-.78.3-.48.75.29 1.16-.2 1.54-1.8.28-1.22.64-2.65.78-3.2 1.3-4.76 1.34-17.7.07-15.88-.5.72-.58.37-.3-1.3.5-2.83-1.25-8.42-2.9-9.3a4 4 0 0 1-1.6-1.82c-.36-1-.27-1 .58.11.83 1.07 1 1.1 1 .21 0-.6-.62-1.27-1.38-1.51s-1.24-.57-1.07-.74c.16-.16-.58-1.18-1.65-2.25-1.12-1.12-1.75-2.28-1.48-2.72q.43-.71-.23-.34c-.39.25-1.6-.31-2.7-1.23-5.24-4.41-12.76-5.74-20.58-3.64m-2.05 1.34c-.7.46-.3.52 1.33.22 2.85-.52 3.4-.9 1.27-.88-.88 0-2.05.3-2.6.66m243.61.46c.83.16 2.02.15 2.65-.02.64-.16-.04-.3-1.5-.28-1.45 0-1.97.14-1.15.3m-15.88 1.34c1.55.14 3.94.14 5.3 0s.08-.26-2.84-.26-4.02.12-2.46.26m-180.36 2.33c.2 1 .05 1.82-.3 1.82-.4 0-.5.87-.25 2.1.24 1.18.16 1.92-.18 1.71-.35-.21-.56 2.25-.5 5.79.1 5.86.21 6.33 2.48 9.89 1.87 2.92 2.86 3.83 4.54 4.17 2.1.43 2.11.45.5.91-2.82.8 5.15.68 9.93-.16a67 67 0 0 1 6.07-.82c.97-.04 1.59-.34 1.38-.68-.2-.34.1-.43.69-.2q1.06.4 3.09-1.9c3.77-4.3 2.59-9.91-3.28-15.6-3.45-3.33-11.4-7.49-13.35-6.98-.67.18-1.08.09-.9-.2s-.34-.7-1.16-.93c-2.13-.57-3.03-.42-1.48.25.94.4.14.58-2.76.62-2.66.03-4.22-.25-4.48-.78-.21-.46-.23-.01-.04.99m72.1 6.13c.22.54.1.99-.27.99s-.46.74-.21 1.75c.34 1.36.24 1.64-.43 1.22-.65-.4-.75-.22-.4.68.25.67.15 1.4-.23 1.64-.66.4-.96 2.25-1.76 10.75-.36 3.72-.33 3.78 1.52 4.2 3.57.78 3.92.97 2.93 1.58-1.46.9 3.86 1.5 11.19 1.26 3.65-.13 6.63-.32 6.63-.43.02-.9-4.57-9.06-7.27-12.91-5.4-7.72-5.26-7.56-6.04-6.42-.52.75-.57.6-.24-.59q.43-1.53-.24-1.15c-.38.24-1.22-.47-1.87-1.57-1.2-2.05-4.03-2.9-3.3-1m-212.38.14c1.18.15 3.12.15 4.3 0 1.19-.14.22-.26-2.15-.26s-3.34.12-2.15.26m90.54.57c-.7.57-.86.82-.35.56q.94-.5.43.33c-.28.44-.92.65-1.43.45s-.93-.02-.93.4c0 .4-.18.56-.4.33-.24-.22-.9.11-1.5.75s-.93.84-.75.44-.17-.18-.79.5-1.36 1.2-1.65 1.19c-.3-.02-.54.22-.54.53 0 .67-3.66 3.86-4.63 4.04-.37.07-.58.53-.48 1.04.2.96-2.06 2.53-2.7 1.89-.2-.2-.23.2-.04.9.2.75-.16 1.65-.88 2.21-1.1.87-1.13.85-.28-.23.5-.64.77-1.33.58-1.51-.2-.2-1 .76-1.8 2.12-.9 1.52-1.07 2.15-.45 1.63.9-.74.94-.58.38 1.37-.78 2.66-.67 10.49.14 10.49.87 0 3.2 4.12 2.74 4.85-.22.36-.1.46.28.23.37-.23 1.23.24 1.92 1.05 1.23 1.44 1.23 1.45-.08.55-.72-.5-.13.18 1.33 1.51s3.02 2.28 3.47 2.1.75.05.66.5c-.49 2.47 11.68 5.11 15.12 3.27.72-.38 2.83-.65 4.7-.59s3.29-.1 3.14-.34c-.3-.48 1.73-1.3 2.52-1.04.84.29 5.94-5.07 8.32-8.72 3.96-6.11 5.14-13.42 3.12-19.36-1.23-3.62-4.76-8.07-6.02-7.6-.5.2-.83 0-.74-.41.23-1.12-7.33-4.07-10.55-4.12-1.64-.02-2.44-.26-1.98-.59.43-.31-.19-.39-1.42-.17-1.54.26-2.05.15-1.73-.38.33-.52-.08-.6-1.35-.3q-1.79.46-1.38-.23c.68-1.1-2.56-.8-4 .36m232.07 20.63c1.19.15 2.98.15 3.97 0 1-.16.02-.28-2.16-.27-2.19 0-3 .13-1.81.27m-253.37 5.15c0 1.82.14 2.5.29 1.48.15-1 .15-2.5-.01-3.3-.16-.82-.28 0-.28 1.82m280.86 1.66c0 1.64.13 2.3.29 1.49.16-.82.16-2.16 0-2.98s-.29-.15-.29 1.49m-90.04 3.97c0 3.1.12 4.37.26 2.82s.14-4.08 0-5.63-.26-.28-.26 2.81m58.56-4.17c.82.16 2.16.16 2.98 0 .82-.15.15-.28-1.49-.28s-2.3.13-1.49.28m-297 10.8c0 4.55.1 6.42.23 4.14s.13-6 0-8.28-.24-.42-.24 4.14m286.78 3.31c0 2 .12 2.82.27 1.82s.15-2.64 0-3.64-.27-.18-.27 1.82m-48.37.33c0 1.82.13 2.49.29 1.48.15-1 .14-2.5-.01-3.31s-.28.01-.28 1.83m85.26 9.2c0 .15 1.17.38 2.6.51 1.42.14 2.45.02 2.28-.26-.32-.5-4.88-.74-4.88-.24m-16.7.89c2.3.13 5.87.13 7.95 0 2.08-.14.2-.24-4.16-.24-4.38 0-6.08.1-3.79.24m-55.99 2.63c1 .15 2.5.15 3.31 0 .82-.16 0-.29-1.83-.28-1.82 0-2.49.13-1.48.28"/><path fill="#787e7e" d="M804.33 60.63c-.63.37-1.88 1.93-2.78 3.46l-1.63 2.79 1.04 6.95c1.36 9.16 1.88 26.08.9 29.68-.44 1.66-1.32 3.08-2.2 3.55-1.95 1.05-14.1 1.54-17.04.69-1.65-.48-1.9-.7-.85-.74l1.47-.05-1.37-3.15c-1.47-3.4-1.45-6.53.12-16.73.96-6.18.53-13.22-.93-15.3-1.06-1.52-1.09-1.46-1.17 2.4l-.09 3.96-.51-4.38c-.28-2.41-.97-5.26-1.53-6.34-4.07-7.88-6.26-.4-6.38 21.82-.07 13.6.01 13.16-3.4 18.38-3.81 5.81-4.47 8.25-2.75 10.09 3.15 3.36 3.12 7.4-.12 14.72-.93 2.11-1.7 4.32-1.72 4.91-.01.9-.2.85-1.02-.24-.83-1.1-1.1-1.16-1.58-.37-.46.73-.9.4-2.03-1.5-1.6-2.73-2.3-3.15-1.76-1.05.2.76.2 1.22-.02 1.01-.2-.2-1.8.8-3.53 2.26-6.15 5.15-13.58 5.95-17.8 1.92-1.12-1.07-2.4-1.93-2.87-1.92-.46.02-.01.47.99 1.02 2.5 1.36 2.31 1.9-.21.59-1.68-.87-1.9-1.22-1.23-2.02.44-.53.61-1.16.38-1.4-.24-.23-.43-.12-.43.24 0 .37-.4.66-.9.66s-.87-.47-.83-1.05c.04-.6-.4-1-1.03-.96-.68.05-.98-.27-.76-.82.19-.5-.15-1.1-.76-1.33-.6-.23-.94-.82-.76-1.31.2-.49.01-1.1-.4-1.34q-.7-.44-.2.41.55.86-.23.39c-.43-.27-.62-.74-.42-1.05.19-.31-.63-2-1.81-3.76-4.44-6.55-6.43-18.61-4.2-25.41.61-1.9.95-3.88.76-4.4-.2-.52-.12-.8.19-.6.3.19 1.69-1.3 3.07-3.3 2.71-3.94 7.7-6.91 11.6-6.91 1.08 0 4.1-.37 6.7-.82 4.18-.71 4.9-1.06 5.98-2.81 2.13-3.5 1.2-9.62-1.47-9.62-.34 0-.62-.78-.62-1.73v-1.74l-6.79.28c-12.05.49-19.72 6-26.19 18.8-4.3 8.52-5.58 22.11-3.19 33.74.38 1.8.33 1.78-.5-.33-.51-1.28-1.27-2.24-1.7-2.15s-1.5-.62-2.4-1.59c-1.5-1.62-1.99-1.6-1.65.1.07.36-.56.04-1.41-.7a52 52 0 0 0-4.35-3.23c-1.54-1.03-2.61-2.18-2.38-2.55.23-.38.12-.5-.24-.28-.61.38-12.8-9.07-12.8-9.92 0-.21.46-.01 1 .44 1.27 1.05 1.25.07-.02-1.62-.54-.7-.8-1.86-.57-2.56.25-.78.14-1.12-.27-.87-.72.45-.54-.93.67-5.03.4-1.35.97-2.3 1.28-2.11.31.2.57.06.57-.29 0-1.8 6.7-4.2 14.2-5.11 5.28-.64 7.13-2.4 6.86-6.57-.25-3.74-1.68-4.54-2.03-1.14-.22 2.02-.28 1.85-.37-.96-.13-3.74-.24-3.85-5-4.56-5.71-.86-18.32 3.04-17.81 5.5.09.42-.25.61-.74.42-1.27-.49-6.23 5.32-8.25 9.67-4.03 8.66-2.32 14.6 6.5 22.51 2.74 2.47 7.84 7.03 11.32 10.14a151 151 0 0 1 9.5 9.2l3.14 3.52-.22 4.77c-.37 7.59-3.15 10-14.78 12.84-8.52 2.07-12.4 4.02-13.79 6.91-1.37 2.9-1.46 2.35.76 4.84 2.12 2.37 3.33 2.55 7.42 1.1 1.56-.54 2.95-.87 3.1-.72s-.86.65-2.25 1.12l-2.53.85 2.32.5c3.05.64 12.58-2.45 18.66-6.06 5.13-3.05 10.68-8.94 10.1-10.73-.2-.65-.07-1.17.29-1.17s1.01-1.12 1.45-2.49c.44-1.36 1.2-2.95 1.7-3.52q.91-1.04.23-1.7-.7-.7.34-.69c.55 0 1.01.2 1.01.43 0 2.21 9.52 13.27 11.42 13.27.32 0 .4.29.18.65-.24.39.06.48.73.22.63-.24.97-.17.76.17s.27.67 1.05.74c.79.08 3.52.4 6.07.74l4.63.6-3.64.16-3.64.16 3.97.87c5.52 1.21 19.88.86 22.6-.54 2-1.04 5.55-5.07 5.55-6.32 0-.35.67-.52 1.5-.37.81.16 1.11.1.65-.11s-.66-.67-.46-1c.52-.85 2.95-.77 2.95.09 0 .39-.3.52-.66.3s-.66-.26-.66-.07.63.68 1.4 1.1c1.06.57 1.29.56.93-.02-.29-.46-.12-.71.41-.63 1.58.27 4.28-1.21 5.44-2.98 1.31-2 2.46-11.74 1.7-14.45-1.85-6.58 5.89-13.49 13.68-12.22 1.25.2 2.27.12 2.27-.17 0-.66-4.72-1.94-8.28-2.25l-2.65-.22 3.03-.11c7.33-.27 14.07 4.8 16.23 12.2.98 3.37 1.01 4.52.3 9.18-1.16 7.46-.91 8.5 2.15 9.26 3.3.82 3.85.16 4.4-5.18.25-2.38.66-4.54.92-4.8.71-.71.52 2.3-.43 6.88-.87 4.11-.86 4.14.62 4.14 4 0 6.1-6.72 4.96-15.78-.44-3.53-1.07-9.69-1.39-13.7s-1.03-10.26-1.59-13.9c-1.3-8.52-1.3-15.83-.04-20.68 2.32-8.91 1.81-15.47-1.4-18.13-1.06-.87-1.08-.82-.32.6.45.85.69 1.68.52 1.85-.16.16-.67-.62-1.13-1.73-.78-1.88-4.17-5.33-5.19-5.29-.24.01-.96.32-1.59.7M946 64.22c.21.55.1 1-.24 1-.37 0-.83 8.6-1.12 21.02-.27 11.57-.72 22.38-1.01 24.02l-.53 2.98-.09-3.19c-.05-1.93-.34-3.02-.74-2.77-.37.22-.67.07-.67-.33s-.3-.56-.66-.34-.66-.02-.66-.55-.43-1.13-.96-1.33q-.98-.39-.57.66c.22.56-.38.25-1.32-.7-2.09-2.08-4.86-2.22-13.78-.68-7.33 1.27-12.6.5-12.17-1.77.13-.71 0-1.14-.3-.96-1.58.99-1.76-9.78-.21-12.87 1.67-3.34 3.41-3.96 9.71-3.48 8.92.69 19.11.31 18.5-.68-.17-.27.6-1.27 1.72-2.21 2.43-2.05 2.6-4.14.5-6.11q-2.61-2.45-2.22-.62c.1.46-.11.18-.47-.61-1.52-3.42-4.06-3.9-13.7-2.58-5.94.81-10.22 1.05-13.38.74-11.5-1.13-12.42-1.1-14.01.63l-1.48 1.6.24-1.8c.14-1.07-.37-2.71-1.27-4.1l-1.5-2.32-.42 2.65-.42 2.65-.09-3.37c-.08-2.96-.31-3.47-1.83-4.17-2.2-1-3.82-.04-6.55 3.9-2.31 3.34-2.42 5.78-.5 11.6 1.23 3.68 1.34 6.1 1.52 31.14.1 14.93-.05 29.15-.34 31.61-.59 4.93-.36 5.2 2.98 3.47 1.7-.87 1.9-.87 1.57-.02-.54 1.4 3.46.8 5.67-.83 2.88-2.13 3.4-3.9 3.07-10.4-.24-4.89-.2-5.3.26-2.32.3 2 .58 6.74.61 10.52l.07 6.87 2.7-.43c1.88-.3 2.56-.21 2.25.3-.33.52 1.11.58 5.08.2 9.18-.85 17.79-.47 22.88 1.01 1.15.34 2.25.47 2.44.28s.72-.1 1.2.2 1.47.62 2.2.7q1.3.13-.66-.78l-1.99-.93 1.78-.03c.98-.01 1.95.25 2.16.58.6.98 2.77.07 5.45-2.32 1.4-1.24 2.62-2 2.73-1.67s.83.43 1.6.23c.86-.23 1.23-.1.97.32-.72 1.17 5.56.44 9.43-1.1a75 75 0 0 0 7.95-3.96c2.4-1.39 5.49-2.89 6.85-3.33 1.37-.44 2.35-1.04 2.18-1.32-.18-.28.34-.39 1.15-.23 2.25.43 12.6-10.24 14.64-15.1.83-1.97.89-1.83 1.3 3.47.23 3.04.43 7.5.43 9.9s.2 6.23.44 8.5l.43 4.13 2.22-.42q2.24-.42 2.22.37c0 .59 1.24.66 4.8.27 5.69-.61 13.97-.64 19.04-.06 2.63.3 3.28.23 2.32-.24-1-.5-.68-.57 1.33-.26 3.13.48 3.84.88 1.6.91-1.46.02-1.5.08-.38.73.88.51 1.43.5 1.95-.02.4-.4 1.64-.7 2.75-.66 1.97.06 1.98.08.37.6-1.37.43-1.42.53-.33.58 2.62.11 4.24-.76 5.92-3.18 1.5-2.17 1.62-2.72.98-4.56-.75-2.14-1.8-1.94-2.77.54-.34.86-.39.86-.42-.01-.01-.55.41-1.57.95-2.28.94-1.25 1.39-3 .55-2.16-.23.23-1.01-.33-1.73-1.25l-1.31-1.66-15 .46c-14.29.45-14.95.42-14.03-.7.85-1.02.85-1.26 0-1.93-1.3-1.02-1.5-2.02-1.4-6.96.15-7.8 3.93-12.22 9.9-11.56 1.7.18 3.67.64 4.35 1 .89.48 1.12.46.8-.05-.28-.46.2-.73 1.28-.73.96 0 1.58.25 1.39.56s.4.9 1.32 1.33c2.35 1.07 2.9.9.94-.3-.91-.57-1.16-.87-.55-.68s2.18.53 3.48.78c1.3.24 2.2.7 1.99 1.03-.7 1.13.98.58 1.72-.57.7-1.1.73-1.1.38 0-.5 1.6 2.78.89 4.38-.95 2.5-2.85 1.8-10.94-.93-10.73-.72.05-.92-.33-.68-1.26.2-.79.08-1.18-.3-.94-.35.22-1.14-.18-1.75-.9-1.39-1.61-5.11-1.68-13.33-.24-5.33.93-13.04.8-12.04-.2.2-.2-.08-1.4-.62-2.66-.55-1.32-.96-4.42-.96-7.2 0-4.45.17-5.06 1.93-7.03l1.93-2.16 5.52.27c12.77.62 16.91.44 18.26-.78.7-.64 1.48-.96 1.72-.72.25.25.45-.14.45-.86 0-.71.33-1.63.74-2.05.85-.84.24-4.15-.76-4.15-.35 0-.65.24-.65.54 0 .29-.44 1.1-1 1.82-.97 1.26-.98 1.26-.55-.04a9 9 0 0 1 1.04-2.11q.62-.78-1.68-3.29l-2.3-2.5-6.86.97a104 104 0 0 1-23.1.61c-4.33-.43-7.67.18-7 1.28.21.33-.07.76-.61.97-1.38.53-1.25 2.53.66 10.63 1.18 4.99 1.62 8.58 1.53 12.48-.12 5.2-.14 5.26-.35 1.16-.27-5.35-.65-6.67-1.53-5.28-.61.97-.97-.24-.71-2.41.05-.41-.37-1.12-.92-1.58s-1-1.11-1-1.46c0-.69-1.28-2.12-2.3-2.56a1.3 1.3 0 0 1-.73-.95l-.18-1.47c-.06-.47-.58-.64-1.26-.4-.64.24-.95.19-.68-.1.52-.58-2.52-3.21-3.97-3.42-1.34-.2-3.5-2.3-3.07-3 .2-.32-.03-.5-.51-.4s-.8-.22-.7-.7-.1-.7-.45-.48-2.55-.66-4.89-1.95c-3.51-1.93-22.64-8.28-24.94-8.28-.36 0-.49.44-.28.99M810.25 75.3c-.93 3.75-1.85 8.3-2.05 10.13l-.36 3.3.68-2.97c.37-1.64 1.41-6.08 2.3-9.87.9-3.8 1.52-7 1.38-7.15-.14-.14-1.02 2.81-1.95 6.56m51.6-1.27c-.52 1.17-2.05 6.9-3.4 12.72-2.59 11.23-6.12 21.78-8.49 25.33-1.56 2.36-2.42 2.74-2.42 1.1 0-.75-.4-.97-1.32-.73-.96.25-1.33.02-1.33-.84 0-.65-.43-1.54-.95-1.97a1.9 1.9 0 0 1-.56-1.9c.22-.62.15-.9-.15-.62-.54.5-4.24-6.97-4.28-8.61-.01-.46-.35-.83-.75-.83s-.57-.44-.36-.97c.2-.54.11-1.13-.2-1.33-.32-.2-1.7-3.85-3.07-8.13-2.9-9.06-4.35-11.47-3.86-6.4.18 1.79.01 4.15-.35 5.24-.62 1.81-.65 1.75-.31-.76.47-3.54-.74-10.05-2.15-11.6-1.24-1.38-3.13-1.65-2.72-.4.15.45-.12 1.22-.6 1.7-.49.49-.89 2.28-.89 3.99 0 6.83-5 54.36-6.34 60.27-1.25 5.54-1.2 6.97.4 10.09 1.47 2.89 2.25 3.17 4.1 1.5 1.1-1 1.2-1.01.82-.04-.78 2.04 3.12.26 5.29-2.42l2.03-2.51-.2-9.84c-.22-10.42.64-17.7 2.24-18.93.75-.58.82-1.15.29-2.53-1.16-3.06-.74-3.45.74-.69 1.8 3.35 4.9 10.75 6.67 15.89 1.79 5.21 1.96 5.34 4.4 3.29 1.15-.97 1.92-1.31 1.71-.77-.55 1.44.76 1.96 2.46.98 2.56-1.48 4.38-4.02 6.54-9.13 3.44-8.15 5.94-13.62 5.94-13.04 0 .3.48.08 1.06-.5.57-.58 1.36-.85 1.75-.6.49.3.59-.5.32-2.49-.5-3.82.42-2.13 1.84 3.36 1.14 4.4 2.25 12.52 2.67 19.56.6 10.02 2.17 19.54 3.23 19.54.43 0 1.92-.58 3.31-1.29 2.5-1.27 2.52-1.27 1.36 0-2.5 2.78 2.49 1.16 5.5-1.78.46-.44.83-1.5.84-2.35 0-1.27.13-1.36.72-.54.64.88.68.88.4-.01-.3-1-1.79-8-3.2-15.22-.4-2-.96-3.95-1.24-4.31s-.87-2.45-1.3-4.64a76 76 0 0 0-1.45-6.14 28 28 0 0 1-.92-4.3c-.14-1.18-.69-4.38-1.23-7.11a932 932 0 0 1-2.01-10.57c-1.24-6.74-2.68-11.7-4.07-13.94l-1.02-1.66.27 1.78c.15.98.02 2.17-.29 2.65q-.55.9-.56-.94c-.01-2.4-1.87-6.94-3.02-7.38-.59-.23-1.28.42-1.88 1.77m29.84 3.61c-.83 6.74-1.1 11.77-.52 10.05.64-1.93 1.69-13.2 1.22-13.2-.17 0-.48 1.42-.7 3.15m23.25-2.67c.82.15 2.02.15 2.65-.02s-.04-.3-1.5-.29-1.97.15-1.15.3m47.36 3.23c1 .54 1.82 1.12 1.82 1.28s-.82.14-1.82-.04c-2.52-.46-4.79.91-6.28 3.8-1.51 2.93-2.4 19.62-1.85 34.88.3 8.48.48 9.6 1.67 10.5 1.28.97 1.27.99-.33.55-1.4-.38-1.32-.23.5.93 2.66 1.68 2.74 1.68 7.73.1a84 84 0 0 1 6-1.71c3.4-.72 9.02-7.16 11.58-13.26 6.45-15.37.6-27.53-17.81-37.05-2.53-1.31-3.63-1.3-1.21.02m-184.56 7.47c-.65 4.13-1.05 7.64-.9 7.8.43.42 2.6-12.76 2.33-14.1-.14-.67-.78 2.16-1.43 6.3M950.7 81.7a20 20 0 0 0-.45 3.98l.04 1.73.65-1.63c.36-.9.57-2.69.46-3.97l-.2-2.35zm50.28.53c-.6 2.06-1.28 7.85-.88 7.48.21-.2.67-2.13 1.01-4.3.62-3.91.55-5.52-.13-3.18m-310.6.03c1.2.15 2.98.15 3.98 0s.02-.28-2.17-.27c-2.18 0-3 .13-1.8.27m44.03.67c1.37.14 3.6.14 4.97 0s.25-.26-2.48-.26c-2.74 0-3.85.12-2.49.26m171.05 2.4c-.24 1.64-.31 3.39-.14 3.86.16.48.52-.71.8-2.65.27-1.93.34-3.67.14-3.87-.19-.19-.55 1-.8 2.65m116.93-2.22c1.64.26 3.73.26 4.64 0 1.06-.3 0-.48-2.97-.47-4.19 0-4.35.05-1.67.47m-99.42.68c1.67.72 9.16 1.05 9.77.44.2-.2-1.32-.35-3.37-.35a43 43 0 0 1-5.86-.39c-1.9-.34-1.96-.3-.54.3m-25.42 2.64c.2 1.8.1 2.63-.24 2.1-.96-1.46-2.21 6.75-2 13.05.12 3.14.47 5.9.79 6.13.31.23.8 4.55 1.07 9.6.32 5.96.53 7.56.6 4.56.07-2.55.42-7.47.8-10.93 1.04-9.75.9-20.33-.31-24.18l-1.05-3.31zm-30.52.96c-.25 1.33-.3 2.56-.13 2.75.19.18.54-.76.79-2.1.25-1.32.3-2.56.12-2.74s-.53.76-.78 2.09m23.31 4.48c-.22.83-.37 4.2-.31 7.48l.09 5.96.48-7.29c.5-7.48.45-8.8-.26-6.15m59.65-.55c-.25.65-.42 2.72-.38 4.6l.09 3.43.57-3.98c.61-4.17.48-6.04-.28-4.05m50.05 4.05c.01 1.46.15 1.98.3 1.15.16-.82.16-2.01 0-2.65-.17-.63-.3.05-.3 1.5m-223.9 1.33c.01 1.46.15 1.97.3 1.15.17-.82.16-2.02 0-2.65-.17-.63-.3.04-.3 1.5m32.05-1.3c-.23.59-.38 1.72-.35 2.51q.08 1.34.62-.88c.57-2.46.42-3.42-.27-1.63m-93 3.47c-.4 1.16-.45 3.42-.12 5.83l.55 3.92-.2-3.97c-.11-2.19.06-4.69.39-5.56.32-.87.47-1.7.32-1.86-.15-.15-.58.59-.94 1.64m278.26 6.77c0 2 .13 2.82.28 1.82s.15-2.64 0-3.64-.28-.18-.28 1.82m-42.98 10.93c0 6.2.1 8.82.22 5.83s.12-8.06 0-11.26-.22-.76-.22 5.43m-95.22-5.34c-.97 1.98-1.76 3.84-1.74 4.14.01.3.91-1.22 2-3.37 1.09-2.14 1.87-4 1.74-4.14s-1.03 1.39-2 3.37m179.13-.26a4.3 4.3 0 0 1-.85 2.49c-.6.6-.6.8-.01.8.9 0 1.76-2.85 1.25-4.12-.19-.47-.37-.1-.4.83m-142.28 2.29c0 1.82.14 2.49.29 1.48.15-1 .15-2.5-.01-3.31s-.28 0-.28 1.83m-81.48 2.98c0 1.64.12 2.3.28 1.49.16-.82.16-2.16 0-2.98s-.28-.15-.28 1.49m132.3-.05c0 2.86-.16 2.97-5.3 3.67-2.84.4-2.92.36-1.66-.68l1.33-1.1-1.33.38c-3.22.9-5.26 1.17-4.47.6 1.21-.85-5.18-2.37-10.43-2.47-8.52-.16-11.6 3.03-11.6 12 0 4.19.26 5.68 1.16 6.66.92 1.02.98 1.45.33 2.14-.68.72 1.78.8 13.86.42l14.68-.45 2.38 3.12c1.3 1.7 2.37 2.79 2.37 2.4s-.37-1.1-.82-1.59c-2.21-2.34-2.75-3.27-1.77-3.06.52.1 1.14.65 1.39 1.2s.47-5.05.5-12.43c.02-7.37-.1-13.41-.29-13.41s-.33 1.17-.33 2.6m49.85-.28c0 1.46.14 1.97.3 1.15s.15-2.02-.01-2.65c-.17-.63-.3.04-.3 1.5m-72.36-.66c3.02 1.16 4.21 1.14 1.65-.03-1.09-.5-2.43-.9-2.98-.89s.05.42 1.33.92m-68.8 4.39c-.8 1.89-1.32 3.54-1.19 3.67.13.14.89-1.3 1.67-3.18.78-1.9 1.32-3.55 1.18-3.68-.13-.13-.88 1.3-1.67 3.19m41.18 3.22c0 2 .13 2.83.28 1.83s.15-2.65 0-3.65-.28-.18-.28 1.82m-117.9 1c0 2.18.13 3 .28 1.8.14-1.18.14-2.97-.01-3.97s-.27-.02-.27 2.17m50.97-1.33c0 1.46.14 1.98.3 1.15.16-.82.15-2.01-.01-2.65-.17-.63-.3.04-.3 1.5m-14.52 3.65c0 2.36.12 3.33.27 2.15.14-1.19.14-3.12 0-4.3-.15-1.2-.27-.22-.27 2.15m93.18.46c-.18 2.26-.08 3.87.21 3.57.3-.3.44-2.14.32-4.1l-.2-3.58zm-129.68 9.42c-.45 3.06-.69 5.7-.54 5.84.44.44 1.9-8.7 1.6-10.1-.14-.73-.62 1.2-1.06 4.26M893 137.57c-.22.83-.38 2.1-.35 2.84s.33.16.66-1.26c.65-2.75.37-4.14-.31-1.58m-184.2 1.55c-.26 1.33-.33 2.55-.17 2.71s.5-.8.75-2.12c.25-1.33.32-2.55.16-2.71s-.5.79-.75 2.12m206.82.78c1.56.14 3.94.14 5.3 0s.08-.26-2.83-.26-4.03.12-2.47.26m-89.83 1.94a17 17 0 0 1-.49 3.32c-.36 1.14-.34 1.14.37.04.42-.65.64-2.14.49-3.32l-.27-2.13zm-65.5 5.18c0 1.82.13 2.49.29 1.48.15-1 .14-2.5-.01-3.3-.16-.82-.28 0-.28 1.82m258.49.33c2.8.72 5.2.72 2.98 0-.91-.29-2.4-.52-3.31-.52-1.5.02-1.46.07.33.52m-98.37.67c.9.29 2.4.52 3.3.51 1.5 0 1.46-.06-.32-.51-2.8-.72-5.2-.72-2.98 0"/></svg>