<svg xmlns="http://www.w3.org/2000/svg" fill-rule="evenodd" aria-label="FLORALE SCHMIEDE" viewBox="0 0 1168 157"><path fill="#4e9c24" d="M381.5 33.67c-4.85 1.07-7.64 2.62-6.32 3.51.81.54.17.62-1.68.21-1.65-.37-2.67-.31-2.26.13s-.15 1.43-1.25 2.2c-2.76 1.93-2.55 2.71 2.01 7.66 3.03 3.29 4 5.17 4 7.73 0 6.38-5.05 24.39-12.43 44.39-11.42 30.91-14.61 42.19-12.37 43.7 5.38 3.62 7.12 4.08 8.48 2.23.72-1 1.33-2.51 1.33-3.37.02-1.34.15-1.35.94-.1.5.8.65 1.87.33 2.4s-.09.64.52.26c.61-.37.83-1.42.49-2.32-.4-1.02-.23-1.38.45-.96s.88-.06.55-1.34c-.29-1.1-.04-2 .56-2s.8-.74.45-1.66c-.45-1.19-.27-1.44.64-.88.95.6 1.1.23.56-1.46-.5-1.57-.37-2.04.43-1.54s.96-.06.5-1.88c-.36-1.42-.26-2.58.21-2.58s.93-1.19 1.01-2.63c.09-1.45.73-2.99 1.44-3.42 1.03-.64 1.04-1.1.03-2.31-1.51-1.82.1-5.64 2.38-5.64.85 0 1.2-.6.87-1.47-.41-1.08.18-1.45 2.29-1.41 1.56.03 4.41-.22 6.34-.55 8.48-1.45 21.02-1.8 22.45-.61.83.69 2.39.9 3.63.52 1.56-.5 1.96-.36 1.42.52s-.14 1.02 1.42.53c1.22-.4 2.8-.18 3.58.47s1.88.89 2.44.53c.62-.38.8 0 .44.93q-.63 1.6.82 1.02c3.55-1.37 6.9 5.04 11.26 21.52 2.12 7.99 6.71 14.84 9.83 14.65 1.68-.1 2.28-.6 1.9-1.57-.37-1-.05-1.24 1.1-.8.9.35 1.95.13 2.33-.48q.67-1.09-.72-.32c-.77.43.04-.58 1.8-2.24 1.75-1.66 2.87-3.36 2.5-3.77-.39-.4.31-.21 1.55.43 1.9.98 2.25 2 2.26 6.38.01 2.87.36 5.75.77 6.4.9 1.42 28.2 1.34 28.22-.08 0-.5 4.28-.67 9.75-.38 5.97.31 8.78.18 7.25-.34-1.74-.59-.67-.73 3.5-.46s5.4.11 4-.53c-1.46-.67-.9-.79 2.06-.43 2.68.33 4.78 0 6.19-1 1.18-.82 2.73-1.38 3.45-1.23.77.16 1.21-.53 1.08-1.73-.12-1.1.02-1.46.31-.8.3.65 1.18.94 1.98.64.92-.36 1.44.1 1.46 1.3.05 2.59 2.44 5.48 4.1 4.96 4.11-1.3 6.99-1.6 6.41-.67-.34.56 1.25.35 3.55-.46 2.29-.8 5-1.47 6.04-1.47 1.03 0 1.87-.34 1.87-.75s3.94-.84 8.74-.95c5.05-.12 8.15.15 7.36.64-1.69 1.04.15 1.66 7.4 2.51 3.51.42 4.55.3 3.5-.41-1.18-.8-.89-1.01 1.36-1.03 2.13 0 2.7.37 2.28 1.49s.12 1.48 2.14 1.43c2.46-.06 2.53-.16.72-1-1.38-.66-.45-.75 3-.32 17.58 2.2 16.37 2.23 18.1-.42.89-1.34 1.07-2.1.4-1.7-.91.57-.9.19.04-1.62 1.62-3.11 2.46-3.87 1.58-1.43-.69 1.9-.66 1.9 1.34.1 2.15-1.95 2.73-3.08 1.04-2.04-.55.34-1 .14-1-.44s.45-1.06 1-1.06c2.26 0 .77-4.07-2.37-6.47l-3.36-2.56-26.38.92c-24.54.86-30.82.66-26.54-.84 1.35-.47.97-.94-1.8-2.2-1.92-.87-3.26-1.2-2.97-.72.3.48.3.87.01.87s-1.03-.95-1.66-2.12c-.78-1.46-.79-1.91-.04-1.45.68.42.86.09.5-.87-.33-.85-1-1.3-1.48-1-.49.3-.62-.15-.3-1 .34-.86.1-1.56-.5-1.56-1.19 0-1.58-8.2-.45-9.33 1.89-1.89 4.28-11.09 3.08-11.85-.68-.43-.79-.8-.24-.81l11.17-.3c6.1-.16 9.94.1 9.6.67-.32.5-.04.6.62.19s3.48-.2 6.26.47c2.79.66 4.55 1.53 3.93 1.91-.62.39.34.7 2.14.71 1.8 0 5.93.57 9.16 1.25s7.06.98 8.5.65c2.27-.51 2.37-.44.76.54-1.04.63-3.48.87-5.5.54-2.51-.4-3.18-.29-2.14.37 3.3 2.1 11.9.27 10.37-2.22-.38-.6-.23-.82.34-.47 3.86 2.38 5.88-9.16 2.76-15.74-2.68-5.65-6.47-6.3-23.06-3.96-13.62 1.92-29.2 1.47-27.8-.8.3-.48-.73-1.32-2.28-1.86-3.8-1.33-6.33-7.58-6.33-15.66 0-3.4.43-6.45.97-6.78.53-.33.81-1.82.63-3.3-.19-1.5-.15-2.18.1-1.52.23.65.96 1.03 1.61.83 3.93-1.2 19.66-1.4 19.44-.27q-.24 1.24 4.25 1.4c3.92.13 4.12.05 1.5-.64-2.44-.64-2.19-.72 1.39-.4 2.41.2 5.56.44 7 .51 2.22.11 2.08.25-.89.9-4.3.94 6.69.5 11.5-.46 2.36-.47 2.57-.4 1 .34-2.2 1.05-.6 1.45 1.91.49.87-.34 1.3-1.06.96-1.61-.39-.63.22-.74 1.63-.29 1.35.43 2.01.33 1.66-.24-.33-.53.56-1.57 1.96-2.32s3.5-2.73 4.65-4.4l2.1-3.04-2.33 2-2.33 2 1.14-2.18c1.76-3.35 1.47-4.02-2.87-6.6-4.6-2.75-9.15-2.77-26.55-.13-8.1 1.23-12.06 1.32-20.35.47-14.91-1.53-23.01-1.4-23.7.4-.31.8-1.47 1.75-2.58 2.1-2.4.77-2.07 4.49 1.45 15.94 2.58 8.42 2.85 19.38.92 37.49-.87 8.18-1.1 17.3-.68 26.5.45 9.91.34 13.57-.4 12.51-.87-1.23-1.08-1.04-1.17 1-.09 2.22-.2 2.14-1.04-.75-.57-1.97-1.62-3.29-2.66-3.35-3.9-.23-9.37.35-21.1 2.23-15.5 2.48-26.67 1.45-26.9-2.5-.03-.49-1.22-1.65-2.65-2.58-1.42-.94-2.28-2-1.91-2.37s.1-.68-.61-.68c-.8 0-1.08-.77-.76-2 .29-1.1.22-2.18-.14-2.41-.76-.47-.52-21.42.4-35.59.35-5.22.6-11.3.56-13.5-.06-3.07.17-3.65.98-2.5.77 1.1.89.15.44-3.5-.47-3.82-.35-4.64.51-3.5.86 1.15.98.5.52-2.82-.44-3.1-.28-4.13.53-3.63.8.5.93-.46.43-3.42-.38-2.27-.32-4.13.14-4.13s.9-3.1.98-6.9c.12-6.08-.12-7.02-2-8.02-2.8-1.5-7.5-1.85-7.64-.58-.07.55-1.01 1.33-2.1 1.73-5.16 1.91-5.41 4.6-5.22 54.46.16 42.28.03 46.14-1.45 45.57q-1.58-.62-.43-1.03c1.46-.48 1.57-6.12.2-9.72q-.99-2.62 0-2c.55.33 1 .13 1-.45s-.45-1.06-1-1.06-1-.7-1-1.56-.48-1.26-1.07-.9c-.58.36-.94.05-.8-.69.38-1.93-1.1-5.85-2.2-5.85-.51 0-.88-.34-.81-.75.31-2-.22-3.3-1.12-2.75-.57.35-1-.49-1-1.94 0-1.4-.93-3.5-2.07-4.63-1.14-1.14-2.23-2.91-2.43-3.94a18.5 18.5 0 0 0-4.16-7.8 4.7 4.7 0 0 1-1.34-2.7c0-.76-.52-1.7-1.15-2.08q-1.1-.66-.45.44c.4.63.48 1.15.2 1.15-.3 0-1.04-.95-1.67-2.12-.8-1.51-.81-1.92-.02-1.44.78.49.77-.06-.05-1.84-.63-1.4-1.6-2.26-2.16-1.91s-.7.13-.33-.47c.71-1.16-2.52-7.23-4-7.54-.48-.1-.8-.77-.72-1.5.08-.72-.1-1.07-.4-.76-.65.64-3.18-2.46-3.2-3.92-.01-.55.42-.33.95.5.57.88.98 1.01.99.32.01-1.42-2.74-4.32-4.1-4.32-.54 0-.9-.56-.82-1.25.24-2-1.22-5.75-2.25-5.75-.51 0-.66.45-.32 1s.41 1 .16 1c-.26 0-1.44-1.66-2.64-3.69-1.75-2.97-1.83-3.4-.4-2.25 1.65 1.36 1.65 1.26-.04-1.63-1.88-3.2-6.3-8.97-5.01-6.52.46.87.34 1.15-.32.74-.58-.36-.85-1.47-.59-2.47s-.3-2.46-1.25-3.25c-1.6-1.32-1.64-1.25-.54.82 2.23 4.19.53 2.28-3.8-4.25l-4.3-6.5-5.13.12c-2.83.06-6.04.31-7.14.55M268 36.5c0 .83-.68 1.5-1.5 1.5-1.53 0-1.6 1.05-2.1 31-.06 4.13-.35 15.6-.65 25.5-.29 9.9-.19 16.42.23 14.5l.76-3.5.13 3.8c.15 4.38 3.93 37.08 4.69 40.49.5 2.26.53 2.27 3.51.51 3.2-1.89 3.7-3.12 4.24-10.3l.34-4.5.18 5.25c.1 2.89.6 5.25 1.12 5.25 1.1 0 .73-21.58-.42-24.26-.42-1-.26-2.36.38-3.14.63-.75 1.2-3 1.28-5 .23-6.03 6.27-8.85 8.8-4.11.74 1.38 1.52 2.33 1.74 2.12.83-.83 15.86 16.87 28.09 33.08 4.56 6.05 6.47 9.56 7.3 13.45 1.62 7.55 5.18 10.87 11.27 10.51 2.55-.15 5.19-.86 5.87-1.58 1.02-1.08.8-1.1-1.26-.14-2.3 1.08-2.35 1.06-.65-.3 1.01-.82 2.38-1.28 3.04-1.03s2.3-.75 3.66-2.23c1.35-1.48 1.82-2.33 1.05-1.88q-1.46.86-.65-.4c.41-.68 1.33-1 2.04-.73 2.35.9.43-3.18-2.34-4.99-5.16-3.34-10.11-7.89-10.13-9.29-.01-.78-.32-1.1-.7-.74-.76.77-5.32-3.19-5.32-4.62 0-.51-1.13-1.82-2.51-2.9-1.38-1.1-2.21-2.46-1.85-3.06.4-.63.2-.78-.49-.35-1.03.63-1.6-.56-1.27-2.66.07-.41-.44-.64-1.13-.5s-1.19-.53-1.11-1.49c.07-.99-.32-1.46-.92-1.08-.63.38-.83.06-.5-.8.3-.8-.13-2.34-.97-3.42-1.5-1.94-1.51-1.94-.88.04.62 1.95.6 1.95-.84.1-.8-1.04-1.23-2.28-.94-2.75s.03-.85-.59-.85-.86-.42-.54-.94-.21-1.4-1.19-1.97c-.97-.56-1.42-1.04-1-1.06.92-.04-3.12-8.26-4.49-9.14-.52-.34-.2-.9.7-1.24.93-.36 1.34-1.14.93-1.8q-.66-1.1.46-.43c.7.43 2.47-.62 4.34-2.6 1.73-1.82 2.84-2.8 2.47-2.16-.52.87-.08.87 1.81 0 1.37-.64 2.5-1.7 2.5-2.35s.53-1.51 1.16-1.9q1.15-.71.42.69c-.4.77.74-.17 2.55-2.1 1.82-1.92 3.54-3.43 3.84-3.35s.42-.29.27-.82c-.16-.54.13-.72.63-.41 1.18.72 3.3-1.82 2.93-3.52-.16-.72.38-1.34 1.21-1.38.82-.04 1.44-.84 1.36-1.78s.22-1.5.65-1.23c1.17.72 1.93-2.01 1.26-4.57-.37-1.45-.2-2.02.47-1.6s1.06-.68 1.06-2.99c0-2.66-.26-3.27-.98-2.25-.67.96-.8-.02-.39-3.1.42-3.16.3-4.05-.4-3-.81 1.22-1 1.24-1.01.1-.01-.78-1.14-2.89-2.52-4.69-1.37-1.8-2.5-3.65-2.5-4.11 0-1.36-13.01-8.88-19.47-11.25-8.3-3.04-20.18-5.8-32.45-7.56-12.96-1.85-14.08-1.85-14.08.01M98.88 40.75a6 6 0 0 0 0 1.5c.07.41-.3.75-.83.75-1.17 0-6.17 4.55-5.61 5.1.22.23.04 1.99-.41 3.9l-.83 3.5-.1-4.06c-.07-3.07-.77-4.7-2.85-6.62-3.95-3.67-6.44-3.95-18.23-2.09-10.6 1.68-14.83 1.82-34.02 1.14-10.4-.37-10.54-.34-14.32 2.63l-3.82 3 .63 6c.95 9.06 4.47 33.82 5.02 35.32.27.73-.89 3.33-2.57 5.77-5.32 7.73-5.68 10.03-2.18 13.74 5.1 5.38 5.64 7.32 6.3 22.17.66 15.26 1.67 18.73 5.94 20.5 3.53 1.46 10.59.94 10.25-.75-.14-.69.42-1.25 1.25-1.25s1.5-.41 1.5-.92c0-.5.27-1.74.6-2.75.5-1.55.41-1.6-.57-.33-.9 1.17-1.01.51-.53-3 .48-3.49.36-4.16-.52-3-.9 1.2-1.01.92-.52-1.33.44-2 .28-2.63-.53-2.13q-1.18.77-.47-1.41c.43-1.35.24-2.13-.5-2.13-.65 0-.91-.68-.6-1.5s.09-1.5-.5-1.5c-.6 0-.86-.9-.57-2 .31-1.2.12-1.75-.49-1.38-.66.41-.76-.51-.3-2.62.44-2.01.35-3.02-.25-2.65-.6.36-.93-2.27-.86-6.8.06-4.06.34-7.35.61-7.3.27.03 1.27-.27 2.22-.69.94-.4 4.88-.11 8.75.67 3.86.77 7.03 1.04 7.03.59s-.98-.82-2.17-.82-1.93-.23-1.66-.5c.53-.53 10.41.8 14.83 2 2.03.55 2.22.45 1-.5-1.2-.94-.84-1.06 1.8-.6 1.81.31 3.06.18 2.76-.3s.24-.81 1.2-.74 1.8-.53 1.88-1.36l.26-3c.1-1.18.3-1.22.95-.2.66 1.04 1.07 1 2.07-.2.7-.84.93-2.03.54-2.67-.4-.63-.12-1.52.6-1.97 1.01-.62 1.05-1.13.13-2.23-.64-.78-.94-1.65-.65-1.94.3-.3-1.15-1.33-3.2-2.3-3.63-1.72-4-1.7-12.3.38-10 2.52-13.84 2.66-18.57.68-3.94-1.64-4.58-2.62-1.22-1.84l2.25.52-2.3-1.7c-1.26-.94-2.93-1.46-3.71-1.16-.79.3-1.73.04-2.11-.57q-.67-1.1.71-.3c.78.43.4-.19-.84-1.4-1.24-1.2-2.25-2.64-2.25-3.2s-.52-.7-1.16-.3q-1.1.66-.4-.49c.4-.66.17-1.88-.53-2.71-1.4-1.69-2.1-11.63-.75-10.8.46.28.84.08.84-.46s.3-1.76.67-2.72c.5-1.29.32-1.53-.66-.93q-1.32.82-.6-.35c.4-.65 1.13-.93 1.6-.63.5.3 1.41-.43 2.05-1.63 1.12-2.08 1.63-2.15 12.3-1.65 6.13.28 10.02.17 8.64-.26l-2.5-.77 2.67-.1c1.46-.05 2.85.46 3.08 1.15.29.86 2.89 1.25 8.33 1.25 8.45 0 13.84-1 12.97-2.42-.65-1.06 2.27-2.31 3.54-1.52.5.3.91.08.91-.5 0-2.27 2.8-.9 3.48 1.69.4 1.51.94 24.17 1.22 50.35.27 26.17.79 48.04 1.15 48.6.36.55 4.03 1.24 8.15 1.53 4.8.34 6.6.22 5-.33-1.62-.55.81-.73 6.87-.5 6.1.24 8.89.03 8-.59-.89-.61 2.32-.8 9.13-.52 5.94.24 9.63.07 8.5-.4-1.46-.59-.78-.8 2.5-.8a44 44 0 0 0 7-.49c1.38-.28 4.3-.8 6.5-1.16s4.52-1.07 5.15-1.58c1.2-.98 2.38-9 1.22-8.28-.36.22-.93-.69-1.27-2.02-.92-3.67-2.88-3.77-19.64-1-16.01 2.65-22.5 2.64-28.46-.05-2.35-1.06-2.57-1.37-1-1.43 1.64-.07 1.43-.43-1.16-2.02-1.74-1.06-3.46-2.86-3.82-4-.37-1.15-1.15-1.79-1.74-1.43q-1.08.68-.4-1.98c.4-1.63.25-2.65-.41-2.65-.72 0-1.01-4.28-.88-12.97.11-7.13.59-12.73 1.06-12.44.78.48 1.34-8.17 1.29-19.81-.01-2.95.3-4.26.85-3.5.52.72.63-.5.28-3.03-.37-2.62-.2-4.25.43-4.25.64 0 .78-1.56.36-4.15-.5-3.14-.37-3.97.55-3.4.91.56 1.05-.15.54-2.85-.46-2.45-.3-3.6.48-3.6.8 0 .94-1.16.48-3.65-.54-2.84-.4-3.46.6-2.84.99.6 1.15.21.66-1.6a22 22 0 0 1-.66-4.55c-.02-2.98-9.69-7.39-10.13-4.61M210.08 43c-7.34 1.98-9.72 3-7 3 .78 0-.62 1.05-3.12 2.31-10.18 5.17-19.95 13.61-28.04 24.22-12.6 16.55-13.35 35.89-1.97 50.88 4.97 6.54 15.72 14.53 22.45 16.67 4.25 1.35 26.71 2.9 26.02 1.8-.59-.96 5.32-1.92 7.23-1.18q1.69.65.95-.53c-.68-1.1-.3-1.33 2.65-1.57.69-.06 1.85-.78 2.57-1.6q1.29-1.43.63-.15c-.56 1.09-.28 1.13 1.43.22 1.17-.63 2.12-1.6 2.12-2.16s.43-.76.95-.44 1.44-.33 2.04-1.44c.6-1.12 1.66-2.03 2.37-2.03s2.35-1.12 3.64-2.5c1.3-1.37 2.03-2.5 1.64-2.5-.4 0-.22-.91.38-2.03s1.58-1.72 2.19-1.34c.64.4.82.22.42-.41-.37-.6.27-2.59 1.43-4.41 1.77-2.8 2-2.92 1.44-.81-.62 2.36-.54 2.34 1.38-.45 1.51-2.2 1.75-3.3.93-4.28-.84-1.01-.74-1.18.45-.72 1.13.43 1.76-.3 2.33-2.73.42-1.83.96-4 1.18-4.82 1.94-7.2 2.02-26.73.1-23.98-.76 1.09-.88.56-.44-1.97.74-4.26-1.9-12.7-4.4-14.03a6 6 0 0 1-2.41-2.74c-.54-1.53-.41-1.5.88.16 1.25 1.62 1.5 1.68 1.5.32 0-.9-.93-1.92-2.07-2.28-1.15-.37-1.88-.87-1.63-1.12s-.87-1.77-2.49-3.4c-1.68-1.68-2.63-3.44-2.22-4.1.43-.7.28-.9-.35-.5-.59.36-2.42-.48-4.07-1.87-7.92-6.66-19.27-8.67-31.08-5.49M207 45.01c-1.06.7-.46.8 2 .34 4.31-.79 5.13-1.36 1.92-1.34a8.6 8.6 0 0 0-3.92 1m367.76.7c1.25.24 3.05.23 4-.02s-.06-.45-2.26-.44-2.98.22-1.74.46m-23.98 2.02c2.35.22 5.95.21 8 0 2.04-.22.12-.4-4.28-.39-4.4 0-6.08.18-3.72.4M278.5 51.24c.3 1.51.08 2.75-.47 2.75-.58 0-.73 1.3-.36 3.16.36 1.8.24 2.91-.27 2.59-.52-.32-.85 3.4-.76 8.73.14 8.85.32 9.57 3.75 14.94 2.82 4.4 4.32 5.78 6.85 6.3 3.18.64 3.2.68.75 1.37-4.26 1.21 7.77 1.02 15-.23 3.57-.63 7.7-1.18 9.16-1.24s2.4-.53 2.08-1.04c-.31-.5.15-.64 1.04-.3q1.61.6 4.66-2.87c5.7-6.48 3.91-14.96-4.95-23.54-5.2-5.03-17.2-11.3-20.15-10.54-1.01.27-1.62.13-1.35-.31s-.52-1.06-1.75-1.4c-3.22-.85-4.59-.63-2.24.38 1.42.6.2.88-4.17.93-4 .05-6.37-.37-6.75-1.18-.33-.69-.36-.01-.07 1.5m108.85 9.25c.32.83.13 1.5-.41 1.5-.57 0-.7 1.12-.32 2.65.5 2.04.36 2.46-.65 1.83-.98-.6-1.14-.34-.62 1.03.4 1 .24 2.12-.33 2.47-1 .62-1.45 3.4-2.66 16.23-.54 5.62-.5 5.72 2.3 6.33 5.39 1.19 5.92 1.48 4.42 2.4-2.2 1.37 5.83 2.27 16.9 1.9 5.5-.19 10-.48 10-.65.03-1.36-6.9-13.67-10.98-19.49-8.15-11.65-7.94-11.42-9.12-9.7-.77 1.14-.86.93-.35-.87.44-1.54.3-2.15-.37-1.74-.57.36-1.84-.71-2.82-2.37-1.83-3.1-6.1-4.4-4.99-1.52m-320.61.22c1.79.23 4.71.23 6.5 0 1.79-.22.33-.4-3.25-.4s-5.04.18-3.25.4m136.7.85c-1.08.87-1.32 1.25-.54.85q1.42-.76.64.5c-.41.67-1.38.98-2.15.68s-1.4-.03-1.4.6c0 .62-.28.85-.62.5-.35-.33-1.36.17-2.25 1.14-.9.97-1.4 1.26-1.13.66.28-.6-.26-.27-1.2.75-.93 1-2.05 1.82-2.5 1.8-.44-.03-.8.33-.8.8 0 1-5.54 5.82-7 6.1-.55.1-.87.8-.72 1.56.3 1.45-3.1 3.83-4.08 2.86-.31-.31-.34.3-.06 1.35.3 1.14-.24 2.5-1.32 3.35-1.67 1.31-1.7 1.28-.43-.34.77-.98 1.16-2.01.88-2.3-.29-.28-1.51 1.16-2.72 3.21-1.36 2.3-1.62 3.24-.67 2.46 1.35-1.12 1.41-.87.56 2.07-1.17 4.01-1 15.83.22 15.83 1.32 0 4.82 6.22 4.13 7.33-.33.54-.14.7.42.35s1.87.36 2.9 1.58c1.86 2.18 1.86 2.19-.11.83-1.1-.76-.2.27 2 2.28s4.56 3.44 5.24 3.18c.68-.27 1.13.07 1 .73-.74 3.75 17.63 7.73 22.83 4.95 1.08-.58 4.27-.98 7.1-.89s4.95-.15 4.72-.52c-.44-.71 2.61-1.96 3.81-1.56 1.27.43 8.97-7.65 12.55-13.17 6-9.23 7.77-20.26 4.72-29.22-1.86-5.46-7.19-12.2-9.08-11.47-.75.3-1.26 0-1.13-.63.35-1.69-11.06-6.14-15.91-6.21-2.5-.04-3.7-.4-3-.9.65-.47-.28-.58-2.15-.26-2.31.4-3.09.23-2.6-.56.49-.8-.12-.93-2.03-.45q-2.72.67-2.1-.35c1.03-1.66-3.86-1.22-6.03.53m350.33 31.15c1.8.23 4.5.22 6 0 1.5-.23.03-.42-3.27-.41-3.3 0-4.53.2-2.73.41m-382.48 7.78c0 2.75.2 3.76.43 2.24a18 18 0 0 0-.02-5c-.23-1.23-.42.01-.41 2.76m423.98 2.5c0 2.47.2 3.49.44 2.25s.23-3.26 0-4.5-.44-.22-.44 2.25m-135.92 6c0 4.67.17 6.59.38 4.25s.21-6.16 0-8.5-.38-.42-.38 4.25m88.4-6.3c1.24.24 3.26.24 4.5 0s.23-.43-2.25-.43-3.49.2-2.25.44M99.39 119c0 6.88.16 9.69.35 6.25.2-3.44.2-9.06 0-12.5s-.35-.62-.35 6.25m432.91 5c0 3.03.19 4.26.42 2.75a22 22 0 0 0 0-5.5c-.23-1.51-.42-.28-.42 2.75m-73.01.5c0 2.75.2 3.76.43 2.24a18 18 0 0 0-.02-5c-.23-1.23-.42.01-.41 2.76M588 138.4c0 .21 1.76.56 3.92.76 2.15.2 3.7.03 3.44-.4-.48-.76-7.36-1.11-7.36-.36m-25.21 1.34c3.46.2 8.86.2 12 0s.31-.36-6.29-.36-9.17.17-5.71.36m-84.53 3.98c1.52.23 3.77.22 5-.02s-.01-.42-2.76-.41c-2.75 0-3.76.2-2.24.43"/><path fill="#787e7e" d="M827.77 19.07c-.95.55-2.84 2.9-4.2 5.22l-2.45 4.21 1.56 10.5c2.05 13.82 2.84 39.36 1.37 44.8-.67 2.5-2 4.64-3.33 5.36-2.95 1.58-21.3 2.32-25.72 1.04-2.5-.73-2.86-1.05-1.29-1.11l2.22-.09-2.06-4.75c-2.23-5.13-2.2-9.85.18-25.25 1.44-9.34.79-19.97-1.4-23.1-1.61-2.3-1.65-2.21-1.78 3.63l-.13 5.97-.78-6.62c-.42-3.63-1.46-7.94-2.3-9.57-6.15-11.9-9.45-.6-9.63 32.95-.11 20.54.01 19.86-5.14 27.74-5.75 8.78-6.75 12.45-4.15 15.23 4.76 5.08 4.71 11.17-.18 22.23-1.4 3.18-2.57 6.52-2.6 7.41-.02 1.35-.28 1.28-1.53-.37s-1.66-1.75-2.4-.56c-.68 1.11-1.36.61-3.05-2.25-2.43-4.12-3.5-4.75-2.66-1.6.3 1.16.29 1.85-.03 1.53-.31-.31-2.71 1.22-5.33 3.41-9.29 7.78-20.5 9-26.87 2.9-1.69-1.6-3.64-2.91-4.33-2.89-.7.02-.02.71 1.49 1.53 3.78 2.05 3.49 2.86-.32.9-2.53-1.31-2.86-1.85-1.86-3.06.67-.8.93-1.75.57-2.1-.35-.35-.64-.2-.64.36 0 .55-.61 1-1.36 1s-1.31-.72-1.25-1.59c.06-.9-.61-1.53-1.56-1.45-1.03.07-1.47-.4-1.15-1.25.3-.75-.22-1.65-1.13-2-.92-.35-1.43-1.24-1.15-1.98.28-.73.01-1.65-.6-2.02q-1.08-.67-.3.62.81 1.31-.36.58c-.65-.4-.93-1.1-.64-1.58.29-.47-.94-3.03-2.74-5.68-6.69-9.88-9.7-28.1-6.34-38.36.93-2.86 1.45-5.85 1.15-6.63s-.17-1.2.3-.91 2.55-1.96 4.63-4.99C710.6 60.5 718.13 56 724.01 56c1.63 0 6.18-.55 10.13-1.23 6.29-1.08 7.4-1.6 9.01-4.25 3.23-5.29 1.81-14.52-2.22-14.52-.51 0-.93-1.18-.93-2.61v-2.62l-10.25.42c-18.2.74-29.77 9.05-39.54 28.39-6.49 12.86-8.43 33.37-4.81 50.92.56 2.73.5 2.69-.77-.5-.77-1.92-1.91-3.38-2.55-3.24-.63.15-2.26-.93-3.62-2.4-2.27-2.44-3-2.4-2.5.14.11.55-.85.08-2.13-1.05a78 78 0 0 0-6.56-4.87c-2.33-1.56-3.95-3.3-3.6-3.86s.19-.75-.36-.41c-.92.57-19.31-13.7-19.31-14.98 0-.32.67-.02 1.5.67 1.91 1.59 1.89.1-.04-2.45-.8-1.07-1.2-2.81-.86-3.87.38-1.18.22-1.69-.4-1.3-1.1.67-.82-1.42 1-7.6.6-2.04 1.48-3.48 1.95-3.19s.85.1.85-.43c0-2.71 10.12-6.36 21.43-7.72 7.98-.96 10.77-3.63 10.36-9.92-.37-5.65-2.52-6.86-3.06-1.72-.33 3.05-.42 2.8-.56-1.44-.19-5.65-.36-5.82-7.54-6.9-8.63-1.29-27.66 4.6-26.9 8.31.14.64-.36.92-1.1.64-1.93-.74-9.41 8.02-12.47 14.59-6.07 13.07-3.49 22.03 9.8 33.99l17.11 15.3c5.27 4.7 11.72 10.95 14.33 13.88l4.75 5.33-.34 7.2c-.55 11.45-4.75 15.1-22.31 19.38-12.86 3.13-18.72 6.07-20.8 10.43-2.09 4.37-2.22 3.55 1.14 7.31 3.19 3.57 5.02 3.84 11.19 1.67 2.36-.83 4.47-1.33 4.7-1.1.22.23-1.31.99-3.41 1.7l-3.82 1.28 3.5.74c4.6.98 18.99-3.7 28.17-9.14 7.74-4.6 16.12-13.49 15.26-16.2-.31-.97-.12-1.77.43-1.77.54 0 1.53-1.69 2.19-3.75s1.82-4.45 2.56-5.31c.93-1.07 1.04-1.9.34-2.59q-1.04-1.03.52-1.02c.84 0 1.53.29 1.53.64 0 3.34 14.36 20.03 17.24 20.03.48 0 .6.44.27.99-.37.59.08.72 1.1.33.95-.37 1.46-.25 1.15.26-.31.5.4 1.01 1.59 1.12 1.18.1 5.3.6 9.15 1.1l7 .92-5.5.24-5.5.25 6 1.3c8.33 1.83 30.02 1.3 34.12-.81 3.02-1.57 8.38-7.66 8.38-9.54 0-.53 1.01-.78 2.25-.56 1.24.23 1.68.15 1-.17-.7-.33-1-1.01-.7-1.52.79-1.27 4.45-1.15 4.45.15 0 .58-.45.78-1 .44s-1-.38-1-.1c0 .3.95 1.04 2.12 1.66 1.6.86 1.95.86 1.4-.03-.43-.69-.17-1.07.63-.94 2.38.4 6.45-1.83 8.2-4.5 1.98-3.03 3.71-17.73 2.57-21.82-2.79-9.93 8.9-20.36 20.66-18.45 1.88.3 3.42.2 3.42-.25 0-1-7.12-2.93-12.5-3.4l-4-.33 4.57-.17c11.07-.4 21.25 7.25 24.5 18.43 1.48 5.08 1.53 6.81.45 13.85-1.74 11.26-1.37 12.84 3.25 13.98 4.97 1.23 5.82.24 6.65-7.82.37-3.6 1-6.86 1.38-7.24 1.08-1.08.8 3.48-.65 10.38-1.3 6.2-1.3 6.25.95 6.25 6.02 0 9.2-10.15 7.48-23.83a550 550 0 0 1-2.1-20.67 359 359 0 0 0-2.4-21c-1.95-12.84-1.97-23.9-.07-31.2 3.52-13.46 2.75-23.36-2.12-27.38-1.58-1.3-1.62-1.24-.47.92.68 1.28 1.04 2.53.8 2.78-.25.24-1.02-.93-1.72-2.6-1.17-2.84-6.29-8.06-7.83-7.99-.37.02-1.45.48-2.4 1.04m213.87 5.43c.31.82.15 1.5-.37 1.5-.56 0-1.25 12.99-1.68 31.75-.4 17.46-1.1 33.78-1.54 36.25l-.8 4.5-.12-4.8c-.08-2.93-.52-4.58-1.13-4.2-.55.34-1 .11-1-.5s-.45-.84-1-.5-1-.03-1-.83-.65-1.7-1.45-2.01q-1.48-.6-.85 1c.32.84-.58.37-2-1.06-3.15-3.15-7.34-3.35-20.81-1.03-11.06 1.91-19.03.75-18.37-2.68.2-1.07 0-1.72-.44-1.44-2.4 1.48-2.67-14.76-.33-19.44 2.52-5.03 5.16-5.97 14.66-5.24 13.47 1.04 28.86.47 27.93-1.03-.26-.42.9-1.92 2.6-3.34 3.66-3.09 3.92-6.24.75-9.23q-3.94-3.68-3.36-.92c.15.69-.16.27-.7-.93-2.3-5.16-6.12-5.88-20.68-3.89-8.97 1.23-15.44 1.58-20.2 1.11-17.35-1.7-18.75-1.64-21.16.95l-2.23 2.41.36-2.7c.22-1.62-.54-4.1-1.9-6.2l-2.27-3.5-.63 4-.64 4-.14-5.09c-.12-4.46-.47-5.24-2.76-6.28-3.33-1.52-5.76-.07-9.89 5.88-3.49 5.04-3.65 8.73-.74 17.51 1.84 5.56 2.01 9.21 2.28 47 .16 22.54-.08 44.02-.52 47.73-.88 7.44-.53 7.85 4.51 5.24 2.55-1.32 2.85-1.33 2.36-.04-.8 2.1 5.23 1.23 8.57-1.25 4.34-3.22 5.12-5.88 4.63-15.7-.37-7.37-.3-8 .39-3.5.46 3.03.88 10.17.93 15.88l.1 10.38 4.07-.66c2.85-.45 3.87-.32 3.4.45-.49.79 1.69.88 7.67.32 13.86-1.3 26.86-.72 34.53 1.52 1.75.51 3.4.7 3.69.42.28-.28 1.1-.14 1.82.31a9 9 0 0 0 3.32 1.04q1.95.2-1-1.18l-3-1.39 2.7-.05c1.47-.02 2.93.37 3.24.87.92 1.49 4.18.1 8.24-3.5 2.1-1.88 3.95-3 4.12-2.51s1.25.64 2.4.34c1.31-.35 1.87-.16 1.47.48-1.09 1.77 8.4.66 14.23-1.66a113 113 0 0 0 12-5.97c3.63-2.1 8.3-4.37 10.36-5.04 2.07-.67 3.54-1.56 3.28-1.99s.52-.58 1.74-.35c3.4.65 19.03-15.46 22.1-22.78 1.26-2.98 1.34-2.78 1.96 5.24.36 4.58.65 11.3.65 14.93 0 3.64.3 9.41.66 12.84l.65 6.23 3.35-.63c2.28-.43 3.35-.25 3.35.56 0 .88 1.87.99 7.25.4 8.6-.92 21.09-.96 28.75-.09 3.97.45 4.94.35 3.5-.37-1.51-.75-1.03-.84 2-.38 4.72.72 5.8 1.33 2.42 1.37-2.2.03-2.26.13-.57 1.1 1.32.77 2.16.77 2.95-.03.6-.6 2.47-1.06 4.15-1 2.97.1 2.98.12.55.9-2.06.66-2.15.82-.5.89 3.96.17 6.4-1.15 8.94-4.8 2.27-3.28 2.45-4.11 1.48-6.89-1.13-3.23-2.71-2.92-4.18.82-.51 1.3-.59 1.3-.63-.02-.02-.82.61-2.37 1.42-3.44 1.43-1.89 2.1-4.53.84-3.26-.35.35-1.53-.5-2.61-1.88l-1.98-2.52-22.64.7c-21.57.68-22.57.63-21.18-1.05 1.28-1.55 1.28-1.9 0-2.91-1.98-1.55-2.28-3.06-2.13-10.52.24-11.77 5.95-18.44 14.94-17.45 2.59.28 5.55.97 6.59 1.52 1.34.72 1.68.7 1.2-.09-.43-.7.3-1.1 1.94-1.1 1.44 0 2.38.38 2.09.85s.6 1.37 1.99 2c3.56 1.63 4.38 1.36 1.42-.45-1.37-.85-1.74-1.3-.82-1.03.92.28 3.28.81 5.24 1.18s3.31 1.07 3.01 1.56c-1.06 1.71 1.48.87 2.6-.86 1.06-1.66 1.1-1.66.57.01-.75 2.4 4.2 1.33 6.62-1.44 3.77-4.3 2.7-16.51-1.41-16.2-1.09.08-1.4-.5-1.02-1.9.3-1.19.12-1.78-.45-1.43-.54.33-1.73-.27-2.65-1.34-2.1-2.45-7.72-2.55-20.13-.38-8.04 1.4-19.68 1.21-18.16-.3.28-.29-.14-2.1-.94-4.02-.83-1.99-1.46-6.66-1.46-10.86 0-6.72.26-7.64 2.91-10.62l2.91-3.26 8.34.4c19.28.94 25.53.68 27.57-1.16 1.06-.97 2.23-1.45 2.6-1.09.37.37.67-.21.67-1.3a5 5 0 0 1 1.13-3.09c1.28-1.28.36-6.27-1.15-6.27-.54 0-.98.36-.98.8s-.68 1.7-1.5 2.76c-1.48 1.91-1.5 1.91-.85-.06.37-1.1 1.07-2.53 1.58-3.19.61-.8-.22-2.42-2.55-4.96l-3.46-3.77-10.36 1.46c-11.29 1.6-24.72 1.95-34.88.93-6.53-.66-11.57.26-10.55 1.92.3.5-.11 1.16-.94 1.47-2.07.8-1.88 3.82 1.01 16.04 1.78 7.54 2.44 12.96 2.3 18.84-.18 7.86-.2 7.95-.52 1.76-.4-8.08-.99-10.08-2.32-7.97-.92 1.46-1.45-.36-1.07-3.65.08-.61-.55-1.68-1.38-2.37s-1.51-1.68-1.51-2.2c0-1.05-1.94-3.2-3.48-3.88a2 2 0 0 1-1.1-1.43l-.27-2.22c-.09-.71-.87-.96-1.9-.59-.96.35-1.43.27-1.03-.16.8-.89-3.8-4.85-6-5.17-2.02-.3-5.27-3.47-4.62-4.52.3-.49-.05-.77-.78-.62-.72.16-1.2-.32-1.04-1.04.15-.73-.16-1.06-.69-.74s-3.85-1-7.38-2.93c-5.3-2.92-34.17-12.51-37.65-12.51-.55 0-.74.68-.42 1.5M836.7 41.22c-1.4 5.65-2.8 12.53-3.1 15.28l-.55 5 1.03-4.5c.57-2.48 2.13-9.18 3.49-14.9 1.35-5.72 2.28-10.57 2.07-10.78-.21-.22-1.53 4.24-2.94 9.9m77.9-1.93c-.79 1.77-3.1 10.41-5.13 19.21-3.92 16.96-9.26 32.87-12.83 38.24-2.36 3.56-3.65 4.14-3.65 1.64 0-1.12-.6-1.45-2-1.09-1.45.38-2 .03-2-1.26 0-.98-.65-2.32-1.44-2.98a2.8 2.8 0 0 1-.84-2.87c.33-.93.23-1.34-.23-.93-.81.74-6.4-10.52-6.46-13-.02-.69-.53-1.25-1.14-1.25s-.85-.66-.54-1.47.17-1.7-.3-2c-.48-.3-2.56-5.82-4.62-12.28-4.38-13.67-6.58-17.32-5.84-9.66.27 2.7.02 6.26-.53 7.91-.93 2.74-.97 2.64-.47-1.15.7-5.34-1.11-15.16-3.24-17.52-1.88-2.07-4.73-2.48-4.1-.59.23.68-.19 1.84-.92 2.57S857 44.25 857 46.82c0 10.32-7.55 82.06-9.57 91-1.9 8.35-1.8 10.52.59 15.22 2.23 4.37 3.4 4.8 6.2 2.27 1.67-1.52 1.8-1.53 1.24-.07-1.19 3.1 4.71.4 7.97-3.64l3.07-3.8-.3-14.84c-.33-15.74.97-26.73 3.38-28.59 1.14-.87 1.24-1.73.44-3.81-1.75-4.62-1.12-5.21 1.12-1.05 2.72 5.06 7.4 16.23 10.06 23.99 2.7 7.87 2.97 8.07 6.66 4.96 1.73-1.45 2.9-1.97 2.58-1.15-.84 2.17 1.13 2.96 3.7 1.47 3.87-2.23 6.61-6.06 9.88-13.78 5.2-12.3 8.96-20.55 8.97-19.68 0 .45.72.11 1.6-.76.86-.87 2.05-1.28 2.64-.92.73.46.89-.73.49-3.74-.77-5.77.63-3.21 2.77 5.07 1.72 6.63 3.4 18.9 4.02 29.53.9 15.12 3.28 29.5 4.88 29.5.65 0 2.9-.88 5-1.95 3.79-1.93 3.8-1.93 2.06 0-3.8 4.2 3.75 1.75 8.3-2.69.69-.67 1.26-2.26 1.26-3.54.02-1.92.2-2.06 1.1-.82.95 1.33 1.02 1.32.6-.02-.46-1.5-2.7-12.08-4.85-22.98-.6-3.03-1.43-5.95-1.86-6.5s-1.31-3.7-1.96-7-1.63-7.47-2.19-9.27a43 43 0 0 1-1.39-6.5c-.2-1.78-1.04-6.6-1.85-10.73-.82-4.12-2.19-11.3-3.04-15.96-1.86-10.17-4.05-17.65-6.14-21.04l-1.54-2.5.4 2.69c.23 1.47.03 3.27-.43 4q-.83 1.34-.85-1.42c-.01-3.64-2.82-10.48-4.56-11.15-.88-.34-1.92.64-2.84 2.67m45.06 5.46c-1.27 10.17-1.66 17.77-.8 15.17.98-2.92 2.55-19.92 1.85-19.92-.25 0-.73 2.14-1.05 4.75m35.1-4.04c1.24.24 3.04.23 4-.02.95-.25-.07-.45-2.27-.44s-2.98.22-1.74.46m71.49 4.86c1.51.82 2.75 1.7 2.75 1.94s-1.24.22-2.75-.06c-3.8-.7-7.22 1.38-9.47 5.72-2.29 4.43-3.63 29.63-2.8 52.66.46 12.82.73 14.5 2.52 15.86 1.93 1.47 1.92 1.5-.5.84-2.11-.58-2-.36.77 1.4 4 2.53 4.13 2.53 11.66.13 3.34-1.06 7.42-2.22 9.07-2.57 5.12-1.08 13.61-10.81 17.47-20 9.73-23.21.9-41.57-26.89-55.95-3.82-1.98-5.48-1.95-1.83.03m-278.6 11.28c-.98 6.24-1.6 11.54-1.37 11.76.65.66 3.94-19.24 3.52-21.28-.21-1-1.18 3.28-2.16 9.52m261.11-5.98a31 31 0 0 0-.69 6l.07 2.63.98-2.47c.54-1.35.85-4.05.69-6l-.3-3.53zm75.9.8c-.91 3.1-1.94 11.85-1.33 11.28.32-.3 1.01-3.22 1.53-6.5.94-5.9.83-8.32-.2-4.79m-468.88.05c1.8.23 4.5.22 6 0 1.5-.23.03-.42-3.27-.41-3.3 0-4.53.2-2.73.41m66.48 1c2.06.22 5.44.22 7.5 0 2.06-.2.38-.38-3.75-.38s-5.81.17-3.75.39m258.22 3.62c-.37 2.49-.47 5.12-.22 5.84s.8-1.08 1.2-4c.42-2.93.52-5.55.23-5.85s-.84 1.51-1.2 4M1156.98 53c2.47.4 5.62.39 7 0 1.6-.47-.01-.72-4.49-.72-6.32.01-6.56.08-2.5.72m-150.1 1.03c2.53 1.08 13.83 1.59 14.75.66.3-.3-2-.54-5.1-.54s-7.07-.26-8.84-.57c-2.88-.52-2.96-.47-.8.45M968.5 58c.32 2.72.17 3.98-.35 3.17-1.45-2.2-3.34 10.19-3 19.7.16 4.75.69 8.91 1.17 9.25s1.2 6.87 1.62 14.5c.48 8.99.8 11.41.91 6.88.1-3.85.63-11.28 1.2-16.5 1.58-14.72 1.38-30.69-.47-36.5l-1.58-5zm-46.07 1.44c-.37 2.01-.46 3.88-.18 4.15.27.28.8-1.14 1.18-3.15s.46-3.87.19-4.14c-.28-.28-.8 1.14-1.19 3.14m35.2 6.77c-.34 1.26-.55 6.34-.48 11.29l.14 9 .74-11c.75-11.3.67-13.28-.4-9.29m90.04-.83c-.37.98-.62 4.1-.56 6.95l.12 5.17.88-6c.92-6.3.72-9.13-.44-6.12m75.57 6.12c.01 2.2.22 2.98.46 1.74.24-1.25.23-3.05-.02-4s-.45.06-.44 2.26m-338 2c.01 2.2.22 2.98.46 1.74.24-1.25.23-3.05-.02-4s-.45.06-.44 2.26m48.37-1.96c-.34.9-.57 2.6-.52 3.8.07 1.36.4.88.93-1.33.87-3.72.63-5.18-.4-2.47m-140.4 5.23c-.62 1.77-.68 5.17-.18 8.8l.83 5.93-.3-6c-.17-3.3.1-7.08.58-8.39.5-1.31.71-2.57.48-2.8s-.86.88-1.41 2.46M1113.3 87c0 3.03.19 4.26.42 2.75a22 22 0 0 0 0-5.5c-.23-1.51-.42-.28-.42 2.75m-64.9 16.5c0 9.35.16 13.31.34 8.8s.19-12.16 0-17c-.18-4.84-.33-1.15-.33 8.2m-143.75-8.07c-1.46 3-2.64 5.81-2.62 6.26.02.44 1.38-1.84 3.02-5.08s2.83-6.06 2.63-6.26-1.56 2.1-3.03 5.08m270.42-.38c-.04 1.4-.62 3.09-1.28 3.75-.91.91-.92 1.2-.02 1.2 1.36 0 2.67-4.28 1.9-6.2-.29-.72-.56-.15-.6 1.25m-214.8 3.45c.01 2.75.2 3.76.44 2.24a18 18 0 0 0-.02-5c-.23-1.23-.42.01-.41 2.76M837.27 103c0 2.47.2 3.49.44 2.25s.23-3.26 0-4.5-.44-.22-.44 2.25m199.73-.07c0 4.31-.24 4.47-8 5.54-4.29.6-4.4.54-2.5-1.03l2-1.65-2 .56c-4.86 1.35-7.94 1.77-6.75.92 1.82-1.3-7.82-3.58-15.75-3.73-12.85-.25-17.5 4.56-17.5 18.1 0 6.33.39 8.57 1.74 10.07 1.38 1.53 1.48 2.18.5 3.23-1.02 1.07 2.68 1.18 20.92.63l22.16-.68 3.59 4.7c1.97 2.58 3.59 4.22 3.59 3.63 0-.6-.56-1.67-1.25-2.4-3.34-3.54-4.15-4.95-2.67-4.63.78.17 1.73.99 2.1 1.81s.71-7.61.75-18.75-.15-20.25-.43-20.25-.5 1.77-.5 3.93m75.25-.43c.01 2.2.22 2.98.46 1.74.24-1.25.23-3.05-.02-4s-.45.06-.44 2.26m-109.25-1c4.57 1.76 6.36 1.73 2.5-.04-1.65-.75-3.67-1.36-4.5-1.34s.08.64 2 1.38m-103.87 6.63c-1.18 2.85-1.99 5.35-1.78 5.55s1.33-1.96 2.52-4.81c1.18-2.85 1.99-5.35 1.78-5.55s-1.33 1.96-2.52 4.81M961.3 113c0 3.03.19 4.26.42 2.75a22 22 0 0 0 0-5.5c-.23-1.51-.42-.28-.42 2.75m-177.99 1.5c0 3.3.2 4.53.42 2.73s.21-4.5-.01-6c-.23-1.5-.42-.03-.41 3.27m76.94-2c.01 2.2.22 2.98.46 1.74.24-1.25.23-3.05-.02-4s-.45.06-.44 2.26m-21.93 5.5c0 3.58.18 5.04.4 3.25a32 32 0 0 0 0-6.5c-.22-1.79-.4-.33-.4 3.25m140.67.7c-.27 3.42-.13 5.84.32 5.4.44-.45.66-3.24.48-6.2l-.32-5.4zM783.2 132.92c-.66 4.63-1.03 8.6-.81 8.81.66.67 2.87-13.12 2.43-15.25-.22-1.09-.95 1.8-1.62 6.44m178.43 2.29a17 17 0 0 0-.53 4.29c.05 1.1.5.25 1-1.9.98-4.16.56-6.25-.47-2.39m-278.08 2.35c-.38 2-.49 3.84-.24 4.09.24.24.75-1.2 1.12-3.2s.49-3.85.24-4.1c-.24-.24-.75 1.2-1.12 3.2m312.22 1.18c2.35.22 5.95.21 8 0 2.04-.22.12-.4-4.28-.39-4.4 0-6.08.18-3.72.4m-135.62 2.93c-.09 1.74-.42 4-.74 5-.54 1.73-.5 1.73.57.06.62-.98.95-3.23.73-5l-.4-3.23zm-98.87 7.83c0 2.75.2 3.76.43 2.24a18 18 0 0 0-.02-5c-.23-1.23-.42.01-.41 2.76m390.21.5c4.23 1.08 7.86 1.08 4.5 0-1.37-.44-3.62-.8-5-.78-2.25.02-2.2.1.5.78m-148.5 1c1.38.44 3.63.8 5 .78 2.25-.02 2.2-.1-.5-.78-4.23-1.08-7.86-1.08-4.5 0"/></svg>